<svg width="182" height="58" viewBox="0 0 182 58" fill="none" xmlns="http://www.w3.org/2000/svg">
<g clip-path="url(#clip0_363_1607)">
<path d="M25.7767 27.1083C26.8126 27.1083 27.6523 26.2666 27.6523 25.2284C27.6523 24.1901 26.8126 23.3485 25.7767 23.3485C24.7408 23.3485 23.9011 24.1901 23.9011 25.2284C23.9011 26.2666 24.7408 27.1083 25.7767 27.1083Z" fill="white"/>
<path d="M1.87558 27.716C2.91143 27.716 3.75115 26.8744 3.75115 25.8362C3.75115 24.7979 2.91143 23.9563 1.87558 23.9563C0.839725 23.9563 0 24.7979 0 25.8362C0 26.8744 0.839725 27.716 1.87558 27.716Z" fill="white"/>
<path d="M49.6778 27.716C50.7137 27.716 51.5534 26.8744 51.5534 25.8362C51.5534 24.7979 50.7137 23.9563 49.6778 23.9563C48.642 23.9563 47.8022 24.7979 47.8022 25.8362C47.8022 26.8744 48.642 27.716 49.6778 27.716Z" fill="white"/>
<path d="M25.7767 3.7598C26.8126 3.7598 27.6523 2.91814 27.6523 1.8799C27.6523 0.841659 26.8126 0 25.7767 0C24.7408 0 23.9011 0.841659 23.9011 1.8799C23.9011 2.91814 24.7408 3.7598 25.7767 3.7598Z" fill="white"/>
<path d="M42.6978 10.7559C43.7337 10.7559 44.5734 9.91426 44.5734 8.87602C44.5734 7.83778 43.7337 6.99612 42.6978 6.99612C41.662 6.99612 40.8223 7.83778 40.8223 8.87602C40.8223 9.91426 41.662 10.7559 42.6978 10.7559Z" fill="white"/>
<path d="M42.6978 44.6762C43.7337 44.6762 44.5734 43.8345 44.5734 42.7963C44.5734 41.7581 43.7337 40.9164 42.6978 40.9164C41.662 40.9164 40.8223 41.7581 40.8223 42.7963C40.8223 43.8345 41.662 44.6762 42.6978 44.6762Z" fill="white"/>
<path d="M8.73056 44.6762C9.76641 44.6762 10.6061 43.8345 10.6061 42.7963C10.6061 41.7581 9.76641 40.9164 8.73056 40.9164C7.69471 40.9164 6.85498 41.7581 6.85498 42.7963C6.85498 43.8345 7.69471 44.6762 8.73056 44.6762Z" fill="white"/>
<path d="M8.85556 10.7559C9.89141 10.7559 10.7311 9.91426 10.7311 8.87602C10.7311 7.83778 9.89141 6.99612 8.85556 6.99612C7.8197 6.99612 6.97998 7.83778 6.97998 8.87602C6.97998 9.91426 7.8197 10.7559 8.85556 10.7559Z" fill="white"/>
<path d="M26.8832 5.47217H24.6702V23.8397H26.8832V5.47217Z" fill="white"/>
<path d="M17.8096 24.727H5.42529V26.9452H17.8096V24.727Z" fill="white"/>
<path d="M46.554 24.727H33.7437V26.9452H46.554V24.727Z" fill="white"/>
<path d="M12.1401 10.5998L10.5752 12.1682L19.3604 20.9737L20.9253 19.4052L12.1401 10.5998Z" fill="white"/>
<path d="M32.1918 30.698L30.627 32.2665L39.5851 41.2453L41.15 39.6768L32.1918 30.698Z" fill="white"/>
<path d="M39.4131 10.5995L30.6279 19.405L32.1928 20.9735L40.978 12.168L39.4131 10.5995Z" fill="white"/>
<path d="M19.3607 30.6988L10.5754 39.5043L12.1403 41.0727L20.9255 32.2673L19.3607 30.6988Z" fill="white"/>
<path d="M25.7766 1.8799C12.5768 1.8799 1.87549 12.6059 1.87549 25.8361C1.87549 39.0664 12.5768 49.7924 25.7766 49.7924C38.9765 49.7924 49.6778 39.0664 49.6778 25.8361C49.6778 12.6059 38.9765 1.8799 25.7766 1.8799ZM25.7766 44.8015C15.3265 44.8015 6.8549 36.3103 6.8549 25.8361C6.8549 15.3619 15.3265 6.87078 25.7766 6.87078C36.2268 6.87078 44.6984 15.3619 44.6984 25.8361C44.6984 36.3103 36.2268 44.8015 25.7766 44.8015Z" fill="white"/>
<path d="M43.2047 52.787H8.34883C6.97381 52.787 5.85913 53.9042 5.85913 55.2824C5.85913 56.6606 6.97381 57.7778 8.34883 57.7778H43.2047C44.5797 57.7778 45.6944 56.6606 45.6944 55.2824C45.6944 53.9042 44.5797 52.787 43.2047 52.787Z" fill="#FFD527"/>
<path d="M33.7437 22.5289V29.1435L29.0763 33.8216H28.2663V52.7869H23.2869V33.8216H22.4769L17.8096 29.1435V22.5289L22.4482 17.8796V25.245C22.4482 27.0872 23.9387 28.5812 25.7766 28.5812C27.6146 28.5812 29.1051 27.0872 29.1051 25.245V17.8796L33.7437 22.5289Z" fill="#FFD527"/>
</g>
<path d="M87.3806 19.5615H71.8913V26.1693H85.3008V31.1251H71.8913V38.2164H87.341V43.3334H66.4443V14.4445H87.3806V19.5615Z" fill="white"/>
<path d="M110.694 14.4445H116.26V43.3334H111.684L97.4031 24.5576V43.3334H91.8372V14.4445H96.4325L110.694 33.1799V14.4445Z" fill="white"/>
<path d="M142.207 19.6018H127.114V26.7938H140.127V31.8705H127.114V43.3334H121.548V14.4445H142.207V19.6018Z" fill="white"/>
<path d="M145.475 43.3334V14.4445H151.12V43.3334H145.475Z" fill="white"/>
<path d="M182 43.3334H175.325L168.095 33.0591L160.866 43.3334H154.131L164.371 28.8083L154.389 14.4445H161.123L168.095 24.5173L175.067 14.4445H181.762L171.819 28.8083L182 43.3334Z" fill="white"/>
<defs>
<clipPath id="clip0_363_1607">
<rect width="51.5535" height="57.7778" fill="white"/>
</clipPath>
</defs>
</svg>
