<svg width="36" height="40" viewBox="0 0 36 40" fill="none" xmlns="http://www.w3.org/2000/svg">
<g clip-path="url(#clip0_446_15217)">
<path d="M17.8454 18.7672C18.5625 18.7672 19.1439 18.1846 19.1439 17.4658C19.1439 16.747 18.5625 16.1643 17.8454 16.1643C17.1283 16.1643 16.5469 16.747 16.5469 17.4658C16.5469 18.1846 17.1283 18.7672 17.8454 18.7672Z" fill="white"/>
<path d="M1.29845 19.188C2.01558 19.188 2.59693 18.6053 2.59693 17.8866C2.59693 17.1678 2.01558 16.5851 1.29845 16.5851C0.581325 16.5851 -2.28882e-05 17.1678 -2.28882e-05 17.8866C-2.28882e-05 18.6053 0.581325 19.188 1.29845 19.188Z" fill="white"/>
<path d="M34.3923 19.188C35.1094 19.188 35.6908 18.6053 35.6908 17.8866C35.6908 17.1678 35.1094 16.5851 34.3923 16.5851C33.6752 16.5851 33.0938 17.1678 33.0938 17.8866C33.0938 18.6053 33.6752 19.188 34.3923 19.188Z" fill="white"/>
<path d="M17.8454 2.60294C18.5625 2.60294 19.1439 2.02025 19.1439 1.30147C19.1439 0.582687 18.5625 0 17.8454 0C17.1283 0 16.5469 0.582687 16.5469 1.30147C16.5469 2.02025 17.1283 2.60294 17.8454 2.60294Z" fill="white"/>
<path d="M29.56 7.44644C30.2771 7.44644 30.8585 6.86376 30.8585 6.14497C30.8585 5.42619 30.2771 4.84351 29.56 4.84351C28.8429 4.84351 28.2615 5.42619 28.2615 6.14497C28.2615 6.86376 28.8429 7.44644 29.56 7.44644Z" fill="white"/>
<path d="M29.56 30.9297C30.2771 30.9297 30.8585 30.347 30.8585 29.6282C30.8585 28.9095 30.2771 28.3268 29.56 28.3268C28.8429 28.3268 28.2615 28.9095 28.2615 29.6282C28.2615 30.347 28.8429 30.9297 29.56 30.9297Z" fill="white"/>
<path d="M6.04423 30.9297C6.76136 30.9297 7.34271 30.347 7.34271 29.6282C7.34271 28.9095 6.76136 28.3268 6.04423 28.3268C5.32711 28.3268 4.74576 28.9095 4.74576 29.6282C4.74576 30.347 5.32711 30.9297 6.04423 30.9297Z" fill="white"/>
<path d="M6.13078 7.44644C6.84791 7.44644 7.42926 6.86376 7.42926 6.14497C7.42926 5.42619 6.84791 4.84351 6.13078 4.84351C5.41365 4.84351 4.83231 5.42619 4.83231 6.14497C4.83231 6.86376 5.41365 7.44644 6.13078 7.44644Z" fill="white"/>
<path d="M18.6115 3.78845H17.0793V16.5045H18.6115V3.78845Z" fill="white"/>
<path d="M12.3297 17.1187H3.75594V18.6543H12.3297V17.1187Z" fill="white"/>
<path d="M32.2298 17.1187H23.361V18.6543H32.2298V17.1187Z" fill="white"/>
<path d="M8.40467 7.33832L7.3213 8.42419L13.4034 14.5203L14.4867 13.4344L8.40467 7.33832Z" fill="white"/>
<path d="M22.2866 21.2525L21.2033 22.3384L27.405 28.5545L28.4884 27.4686L22.2866 21.2525Z" fill="white"/>
<path d="M27.2861 7.33812L21.204 13.4342L22.2874 14.5201L28.3695 8.42399L27.2861 7.33812Z" fill="white"/>
<path d="M13.4035 21.253L7.32143 27.3491L8.40481 28.435L14.4869 22.3389L13.4035 21.253Z" fill="white"/>
<path d="M17.8454 1.30151C8.70704 1.30151 1.29845 8.72718 1.29845 17.8866C1.29845 27.046 8.70704 34.4717 17.8454 34.4717C26.9838 34.4717 34.3924 27.046 34.3924 17.8866C34.3924 8.72718 26.9838 1.30151 17.8454 1.30151ZM17.8454 31.0165C10.6107 31.0165 4.74573 25.138 4.74573 17.8866C4.74573 10.6352 10.6107 4.75674 17.8454 4.75674C25.0801 4.75674 30.9451 10.6352 30.9451 17.8866C30.9451 25.138 25.0801 31.0165 17.8454 31.0165Z" fill="white"/>
<path d="M29.9109 36.5448H5.77991C4.82797 36.5448 4.05627 37.3183 4.05627 38.2724C4.05627 39.2265 4.82797 40 5.77991 40H29.9109C30.8628 40 31.6345 39.2265 31.6345 38.2724C31.6345 37.3183 30.8628 36.5448 29.9109 36.5448Z" fill="#FFD527"/>
<path d="M23.3611 15.5969V20.1762L20.1298 23.4149H19.5691V36.5448H16.1218V23.4149H15.561L12.3298 20.1762V15.5969L15.5411 12.3782V17.4773C15.5411 18.7527 16.573 19.7869 17.8454 19.7869C19.1179 19.7869 20.1497 18.7527 20.1497 17.4773V12.3782L23.3611 15.5969Z" fill="#FFD527"/>
</g>
<defs>
<clipPath id="clip0_446_15217">
<rect width="35.6909" height="40" fill="white"/>
</clipPath>
</defs>
</svg>
