<svg width="212" height="214" viewBox="0 0 212 214" fill="none" xmlns="http://www.w3.org/2000/svg">
<path d="M177.337 179.051C176.451 177.187 176.252 175.069 176.775 173.073C177.64 169.663 177.957 170.233 177.052 168.272C176.146 166.311 175.371 165.908 175.906 164.224C176.44 162.539 177.369 159.908 177.033 158.314C176.698 156.72 175.974 156.049 176.3 154.342C176.626 152.635 177.658 151.792 177.147 149.913C176.635 148.034 175.788 148.101 176.114 146.394C176.44 144.687 176.902 144.533 176.771 142.98C176.662 142.2 176.743 141.406 177.006 140.665C177.006 140.665 177.595 143.102 177.98 144.451C178.333 145.45 178.422 146.524 178.238 147.567C178.048 148.55 180.281 150.253 180.349 151.032C180.416 151.811 180.887 152.666 180.145 154.315C179.402 155.963 179.216 156.946 179.647 158.047C180.077 159.147 180.552 158.984 180.099 161.217C179.647 163.449 178.397 163.445 179.348 165.157C180.299 166.868 180.869 167.235 180.43 168.431C179.991 169.626 179.293 171.021 179.565 171.837C179.719 172.244 179.91 172.637 180.136 173.009C180.677 173.972 180.859 175.096 180.647 176.18L180.521 176.854L180.937 180.251L178.913 181.908C178.913 181.908 177.998 181.22 177.337 179.051Z" fill="#CFCFCF"/>
<path d="M175.009 179.345C174.424 178.693 173.975 177.931 173.687 177.104C173.4 176.277 173.279 175.401 173.334 174.527C173.542 171.592 173.963 172.009 172.704 170.546C171.445 169.083 170.612 168.87 170.82 167.403C171.029 165.936 171.45 163.63 170.82 162.372C170.191 161.113 169.353 160.696 169.353 159.233C169.353 157.77 170.191 156.928 169.353 155.461C168.515 153.993 167.677 154.202 167.677 152.743C167.677 151.285 168.094 150.026 167.677 148.763C167.261 147.499 167.532 147.766 167.532 147.766C167.532 147.766 168.515 149.813 169.145 150.86C169.774 151.906 169.982 152.535 169.982 153.373C169.982 154.211 172.496 155.261 172.7 155.886C172.903 156.511 173.537 157.145 173.121 158.604C172.704 160.062 172.7 160.909 173.329 161.747C173.959 162.584 174.375 162.372 174.375 164.26C174.375 166.148 173.121 166.352 174.375 167.611C175.63 168.87 176.264 169.079 176.051 170.125C175.838 171.171 175.426 172.43 175.843 173.059C176 173.279 176.176 173.485 176.368 173.675C177.238 174.572 177.726 175.772 177.726 177.022L178.777 179.739L177.102 181.415C177.102 181.415 176.055 181.021 175.009 179.345Z" fill="#CFCFCF"/>
<path d="M186.951 179.345C187.536 178.693 187.986 177.931 188.273 177.104C188.561 176.277 188.681 175.401 188.627 174.527C188.419 171.592 187.997 172.009 189.256 170.546C190.515 169.083 191.349 168.87 191.14 167.403C190.932 165.936 190.511 163.63 191.14 162.372C191.77 161.113 192.608 160.696 192.608 159.233C192.608 157.77 191.77 156.928 192.608 155.461C193.445 153.993 194.283 154.202 194.283 152.743C194.283 151.285 193.867 150.026 194.283 148.763C194.7 147.499 194.202 148.228 194.202 148.228C194.202 148.228 193.445 149.813 192.816 150.86C192.186 151.906 191.978 152.535 191.978 153.373C191.978 154.211 189.465 155.261 189.261 155.886C189.057 156.511 188.423 157.145 188.84 158.604C189.256 160.062 189.261 160.909 188.631 161.747C188.002 162.584 187.585 162.372 187.585 164.26C187.585 166.148 188.84 166.352 187.585 167.611C186.331 168.87 185.697 169.079 185.91 170.125C186.122 171.171 186.535 172.43 186.118 173.059C185.962 173.275 185.789 173.478 185.602 173.666C184.729 174.572 184.242 175.782 184.243 177.04L183.192 179.757L184.868 181.433C184.868 181.433 185.905 181.021 186.951 179.345Z" fill="#CFCFCF"/>
<path d="M183.261 179.87C183.643 179.272 183.902 178.603 184.022 177.903C184.141 177.203 184.12 176.486 183.958 175.795C183.406 173.485 183.129 173.874 183.936 172.543C184.742 171.211 185.385 170.931 185.022 169.794C184.66 168.657 184.026 166.873 184.361 165.791C184.696 164.708 185.312 164.26 185.118 163.073C184.923 161.887 184.148 161.352 184.619 160.071C185.09 158.789 185.792 158.853 185.598 157.684C185.403 156.516 184.905 155.569 185.072 154.514C185.24 153.459 184.878 153.731 184.878 153.731C184.706 154.627 184.473 155.511 184.18 156.375C183.859 157.029 183.742 157.765 183.845 158.486C183.954 159.156 182.092 160.32 182.006 160.845C181.92 161.371 181.504 161.959 182.033 163.069C182.563 164.178 182.668 164.849 182.278 165.6C181.889 166.352 181.526 166.239 181.775 167.742C182.024 169.246 183.052 169.241 182.228 170.41C181.404 171.578 180.919 171.823 181.227 172.633C181.535 173.444 182.029 174.382 181.78 174.939C181.413 175.556 180.993 176.141 180.525 176.687L180.802 178.358L180.326 180.663L181.88 181.777C181.88 181.777 182.645 181.342 183.261 179.87Z" fill="#CFCFCF"/>
<path d="M189.401 178.163L188.912 190.45H187.549V199.924H173.718V190.45H172.441L171.952 178.163H189.401Z" fill="#263238" stroke="#263238" stroke-width="0.628642" stroke-miterlimit="10"/>
<path d="M172.442 190.45H171.835V213.283H173.719V199.924" stroke="#263238" stroke-width="0.628642" stroke-miterlimit="10"/>
<path d="M188.913 190.45H189.433V213.283H187.545V199.924" stroke="#263238" stroke-width="0.628642" stroke-miterlimit="10"/>
<path d="M154.732 33.9459C155.351 30.6462 154.982 27.2373 153.671 24.1464C152.361 21.0556 150.167 18.4202 147.365 16.5706C144.564 14.721 141.278 13.7394 137.921 13.7488C134.564 13.7582 131.284 14.7583 128.493 16.6236C126.466 11.696 122.791 7.62489 118.096 5.10519C113.402 2.5855 107.978 1.77352 102.751 2.80788C97.524 3.84224 92.8182 6.6588 89.437 10.7767C86.0557 14.8946 84.2086 20.0584 84.2111 25.3867C84.2111 25.672 84.2111 25.9482 84.2111 26.229C80.9045 27.1683 78.0217 29.2165 76.0466 32.0297C74.0714 34.8429 73.1241 38.2499 73.3636 41.679C73.6031 45.108 75.0148 48.3502 77.3619 50.8616C79.709 53.3729 82.8485 55.0004 86.2535 55.4709V55.6294H154.003C156.768 55.5503 159.398 54.4203 161.358 52.4696C163.319 50.5189 164.462 47.8943 164.555 45.1302C164.648 42.3662 163.684 39.6707 161.859 37.5927C160.034 35.5148 157.485 34.2106 154.732 33.9459Z" stroke="#263238" stroke-width="0.628642" stroke-linecap="round" stroke-linejoin="round"/>
<path d="M51.6724 56.2815C51.7523 55.8574 51.7932 55.4269 51.7947 54.9954C51.7916 53.7312 51.4464 52.4914 50.7955 51.4077C50.1447 50.3239 49.2126 49.4366 48.0981 48.8398C46.9836 48.2431 45.7283 47.9593 44.4655 48.0185C43.2027 48.0777 41.9795 48.4776 40.9257 49.176C40.092 47.1585 38.5846 45.4924 36.6604 44.4615C34.7361 43.4306 32.514 43.0987 30.3725 43.5222C28.231 43.9456 26.3025 45.0984 24.9155 46.7841C23.5285 48.4698 22.7687 50.5842 22.7656 52.7672C22.7656 52.885 22.7656 52.9982 22.7656 53.1114C21.4088 53.4959 20.2257 54.3356 19.415 55.4894C18.6044 56.6433 18.2155 58.041 18.3138 59.4477C18.412 60.8545 18.9915 62.1845 19.9547 63.2145C20.918 64.2444 22.2064 64.9114 23.6034 65.1035V65.194H51.378C52.5251 65.1833 53.6239 64.7301 54.445 63.9291C55.2662 63.128 55.7464 62.0409 55.7855 60.8944C55.8247 59.7478 55.4197 58.6305 54.6551 57.7753C53.8904 56.9201 52.8252 56.3931 51.6814 56.3042L51.6724 56.2815Z" stroke="#263238" stroke-width="0.628642" stroke-linecap="round" stroke-linejoin="round"/>
<path d="M178.091 9.89398C178.147 9.61207 178.176 9.32545 178.177 9.03805C178.176 8.19488 177.947 7.36775 177.513 6.64478C177.079 5.92181 176.457 5.33011 175.714 4.93272C174.97 4.53533 174.132 4.34715 173.29 4.38823C172.448 4.42932 171.633 4.69812 170.931 5.166C170.377 3.82379 169.374 2.71537 168.094 2.02961C166.814 1.34386 165.336 1.12319 163.911 1.40522C162.487 1.68725 161.204 2.45453 160.282 3.5763C159.359 4.69808 158.855 6.10494 158.853 7.55716C158.853 7.63415 158.853 7.71114 158.853 7.78813C157.944 8.03634 157.149 8.59214 156.603 9.36087C156.057 10.1296 155.795 11.0637 155.86 12.0042C155.926 12.9446 156.316 13.8332 156.963 14.5186C157.61 15.204 158.475 15.6438 159.41 15.7632V15.8311H177.887C178.65 15.8233 179.381 15.5214 179.927 14.9882C180.473 14.4551 180.792 13.7318 180.817 12.9692C180.843 12.2066 180.573 11.4636 180.065 10.8949C179.556 10.3262 178.847 9.97574 178.087 9.91662L178.091 9.89398Z" stroke="#263238" stroke-width="0.628642" stroke-linecap="round" stroke-linejoin="round"/>
<path d="M149.299 76.2532H125.708L124.726 78.0647C124.196 79.0195 123.42 79.8151 122.478 80.3691C121.537 80.923 120.465 81.2151 119.373 81.2151C118.281 81.2151 117.208 80.923 116.267 80.3691C115.326 79.8151 114.55 79.0195 114.02 78.0647L113.037 76.2532H89.4289C88.8384 76.2454 88.252 76.354 87.7035 76.5729C87.1549 76.7917 86.6548 77.1165 86.2317 77.5286C85.8086 77.9407 85.4709 78.4322 85.2378 78.9748C85.0047 79.5175 84.8807 80.1008 84.873 80.6913V202.215C84.8801 202.806 85.0036 203.39 85.2365 203.933C85.4694 204.476 85.807 204.968 86.2301 205.381C86.6532 205.793 87.1536 206.118 87.7024 206.337C88.2513 206.557 88.838 206.665 89.4289 206.658H149.299C149.889 206.665 150.476 206.557 151.025 206.337C151.574 206.118 152.074 205.793 152.497 205.381C152.92 204.968 153.258 204.476 153.491 203.933C153.724 203.39 153.847 202.806 153.854 202.215V80.6913C153.847 80.1008 153.723 79.5175 153.49 78.9748C153.257 78.4322 152.919 77.9407 152.496 77.5286C152.073 77.1165 151.573 76.7917 151.024 76.5729C150.475 76.354 149.889 76.2454 149.299 76.2532Z" fill="white"/>
<path d="M152.071 83.5898H87.1338V204.525H152.071V83.5898Z" fill="#CFCFCF"/>
<path d="M112.444 136.748C112.444 137.092 112.58 137.3 112.897 137.3C113.214 137.3 113.35 137.092 113.35 136.748V133.845H113.749V136.748C113.749 137.323 113.482 137.708 112.893 137.708C112.304 137.708 112.046 137.323 112.046 136.748V133.863H112.467L112.444 136.748Z" fill="#263238"/>
<path d="M114.977 133.859C115.575 133.859 115.828 134.212 115.828 134.787V135.24C115.828 135.842 115.547 136.146 114.945 136.146H114.569V137.654H114.144V133.854L114.977 133.859ZM114.945 135.779C115.258 135.779 115.398 135.634 115.398 135.271V134.764C115.398 134.416 115.271 134.243 114.945 134.243H114.538V135.779H114.945Z" fill="#263238"/>
<path d="M116.198 137.654V133.854H116.624V137.269H117.711V137.654H116.198Z" fill="#263238"/>
<path d="M117.974 134.773C117.974 134.194 118.263 133.818 118.843 133.818C119.423 133.818 119.717 134.194 119.717 134.773V136.748C119.717 137.323 119.432 137.703 118.843 137.703C118.254 137.703 117.974 137.323 117.974 136.748V134.773ZM118.395 136.761C118.395 137.11 118.54 137.314 118.848 137.314C119.156 137.314 119.301 137.11 119.301 136.761V134.755C119.301 134.411 119.16 134.203 118.848 134.203C118.535 134.203 118.395 134.411 118.395 134.755V136.761Z" fill="#263238"/>
<path d="M120.546 136.893L120.396 137.658H120.007L120.736 133.859H121.347L122.086 137.654H121.633L121.488 136.888L120.546 136.893ZM120.6 136.531H121.447L121.017 134.334L120.6 136.531Z" fill="#263238"/>
<path d="M123.3 133.859C123.894 133.859 124.165 134.216 124.165 134.801V136.721C124.165 137.3 123.894 137.658 123.3 137.658H122.395V133.859H123.3ZM123.3 137.273C123.604 137.273 123.753 137.083 123.753 136.734V134.782C123.753 134.434 123.604 134.244 123.3 134.244H122.847V137.273H123.3Z" fill="#263238"/>
<path d="M124.984 133.859V137.654H124.562V133.854L124.984 133.859Z" fill="#263238"/>
<path d="M125.794 137.654H125.414V133.854H125.953L126.832 136.603V133.854H127.207V137.654H126.755L125.781 134.579L125.794 137.654Z" fill="#263238"/>
<path d="M129.332 134.773V135.099H128.929V134.755C128.929 134.411 128.793 134.203 128.476 134.203C128.159 134.203 128.023 134.411 128.023 134.755V136.748C128.023 137.092 128.164 137.3 128.476 137.3C128.789 137.3 128.929 137.092 128.929 136.748V135.987H128.539V135.611H129.332V136.748C129.332 137.323 129.06 137.703 128.472 137.703C127.883 137.703 127.62 137.323 127.62 136.748V134.778C127.62 134.203 127.892 133.822 128.472 133.822C129.051 133.822 129.332 134.198 129.332 134.773Z" fill="#263238"/>
<path d="M123.074 139.288H103.673V142.549H123.074V139.288Z" fill="white" stroke="#263238" stroke-width="0.628642" stroke-linecap="round" stroke-linejoin="round"/>
<path d="M137.203 139.288H103.673V142.549H137.203V139.288Z" stroke="#263238" stroke-width="0.628642" stroke-miterlimit="10"/>
<path d="M149.113 77.9968H144.354V80.6054H149.113V77.9968Z" stroke="#263238" stroke-width="0.516157" stroke-linecap="round" stroke-linejoin="round"/>
<path d="M148.063 77.9968H144.354V80.6054H148.063V77.9968Z" fill="#263238" stroke="#263238" stroke-width="0.455811" stroke-linecap="round" stroke-linejoin="round"/>
<path d="M149.769 78.726H149.099V79.8762H149.769V78.726Z" fill="#263238" stroke="#263238" stroke-width="0.455811" stroke-linecap="round" stroke-linejoin="round"/>
<path d="M89.6738 78.8074H88.7998V80.3019H89.6738V78.8074Z" fill="#263238" stroke="#263238" stroke-width="0.555145" stroke-linecap="round" stroke-linejoin="round"/>
<path d="M91.0469 78.2821H90.1729V80.3019H91.0469V78.2821Z" fill="#263238" stroke="#263238" stroke-width="0.555145" stroke-linecap="round" stroke-linejoin="round"/>
<path d="M92.418 77.6617H91.5439V80.302H92.418V77.6617Z" fill="#263238" stroke="#263238" stroke-width="0.555145" stroke-linecap="round" stroke-linejoin="round"/>
<path d="M86.9844 81.4974H151.736" stroke="#263238" stroke-width="0.628642" stroke-linecap="round" stroke-linejoin="round"/>
<path d="M157.215 118.017C157.343 118.017 157.465 117.967 157.556 117.877C157.647 117.787 157.699 117.665 157.7 117.537V104.594C157.699 104.466 157.647 104.344 157.556 104.254C157.465 104.164 157.343 104.114 157.215 104.114H155.961V79.3464C155.961 77.6961 155.305 76.1134 154.138 74.9464C152.971 73.7795 151.389 73.1239 149.738 73.1239H88.99C87.3397 73.1239 85.757 73.7795 84.5901 74.9464C83.4232 76.1134 82.7676 77.6961 82.7676 79.3464V207.056C82.767 207.874 82.9275 208.683 83.2399 209.439C83.5524 210.194 84.0106 210.881 84.5885 211.459C85.1664 212.037 85.8525 212.496 86.6078 212.809C87.363 213.122 88.1725 213.283 88.99 213.283H149.738C151.389 213.283 152.971 212.628 154.138 211.461C155.305 210.294 155.961 208.711 155.961 207.061V129.167H157.215C157.344 129.167 157.467 129.116 157.558 129.025C157.649 128.934 157.7 128.811 157.7 128.682V122.908C157.7 122.845 157.687 122.782 157.663 122.723C157.638 122.665 157.603 122.612 157.558 122.567C157.512 122.522 157.459 122.487 157.4 122.463C157.341 122.439 157.279 122.427 157.215 122.428H155.961V118.017H157.215ZM153.855 202.215C153.848 202.806 153.724 203.39 153.491 203.933C153.259 204.476 152.921 204.968 152.498 205.381C152.075 205.793 151.574 206.118 151.025 206.337C150.477 206.557 149.89 206.665 149.299 206.658H89.4293C88.8384 206.665 88.2517 206.557 87.7028 206.337C87.1539 206.118 86.6536 205.793 86.2305 205.381C85.8074 204.968 85.4697 204.476 85.2369 203.933C85.004 203.39 84.8805 202.806 84.8734 202.215V80.6914C84.8811 80.1008 85.0051 79.5175 85.2382 78.9749C85.4713 78.4322 85.809 77.9408 86.2321 77.5286C86.6552 77.1165 87.1553 76.7918 87.7038 76.5729C88.2524 76.3541 88.8388 76.2455 89.4293 76.2532H113.028L114.011 78.0647C114.541 79.0195 115.317 79.8152 116.259 80.3691C117.2 80.9231 118.272 81.2152 119.364 81.2152C120.456 81.2152 121.529 80.9231 122.47 80.3691C123.411 79.8152 124.187 79.0195 124.717 78.0647L125.7 76.2532H149.299C149.89 76.2455 150.476 76.3541 151.024 76.5729C151.573 76.7918 152.073 77.1165 152.496 77.5286C152.919 77.9408 153.257 78.4322 153.49 78.9749C153.723 79.5175 153.847 80.1008 153.855 80.6914V202.215Z" fill="#263238" stroke="#263238" stroke-width="0.628642" stroke-linecap="round" stroke-linejoin="round"/>
<path d="M111.72 162.045L93.9385 164.643L96.5946 182.827L114.376 180.23L111.72 162.045Z" fill="#263238" stroke="#263238" stroke-width="0.628642" stroke-linecap="round" stroke-linejoin="round"/>
<path d="M108.5 168.766L104.999 173.802L101.634 173.349C101.469 173.328 101.302 173.345 101.145 173.399C100.988 173.454 100.845 173.543 100.728 173.661L95.9551 178.412L96.6027 182.832L114.387 180.224L113.028 170.876L110.089 168.535C109.972 168.439 109.837 168.369 109.691 168.328C109.546 168.287 109.393 168.278 109.243 168.3C109.094 168.321 108.95 168.374 108.822 168.454C108.694 168.535 108.584 168.641 108.5 168.766Z" fill="white" stroke="#263238" stroke-width="0.628642" stroke-linecap="round" stroke-linejoin="round"/>
<path d="M101.589 170.863C102.046 170.806 102.476 170.615 102.825 170.313C103.173 170.011 103.423 169.613 103.544 169.168C103.665 168.723 103.65 168.252 103.502 167.816C103.354 167.379 103.079 166.997 102.712 166.718C102.346 166.438 101.904 166.274 101.444 166.247C100.984 166.219 100.526 166.329 100.129 166.563C99.7321 166.797 99.4137 167.144 99.2147 167.56C99.0156 167.976 98.945 168.441 99.0118 168.897C99.0519 169.195 99.1504 169.483 99.3016 169.743C99.4528 170.003 99.6538 170.231 99.8931 170.414C100.132 170.596 100.405 170.73 100.696 170.807C100.987 170.884 101.29 170.903 101.589 170.863Z" fill="white" stroke="#263238" stroke-width="0.628642" stroke-linecap="round" stroke-linejoin="round"/>
<path d="M139.159 24.4656L121.378 27.0628L124.034 45.2474L141.815 42.6502L139.159 24.4656Z" fill="#263238" stroke="#263238" stroke-width="0.628642" stroke-linecap="round" stroke-linejoin="round"/>
<path d="M135.93 31.1834L132.429 36.2102L129.064 35.7574C128.9 35.7355 128.733 35.7519 128.576 35.8053C128.418 35.8588 128.276 35.9477 128.159 36.0653L123.395 40.8114L124.033 45.2677L141.813 42.6682L140.454 33.3164L137.511 30.975C137.396 30.8789 137.262 30.8076 137.118 30.7658C136.974 30.724 136.823 30.7125 136.675 30.7321C136.526 30.7516 136.383 30.8019 136.255 30.8796C136.127 30.9572 136.016 31.0607 135.93 31.1834Z" fill="white" stroke="#263238" stroke-width="0.628642" stroke-linecap="round" stroke-linejoin="round"/>
<path d="M129.023 33.2847C129.48 33.2276 129.91 33.0357 130.257 32.7334C130.605 32.4311 130.855 32.0321 130.974 31.5873C131.094 31.1425 131.079 30.6721 130.931 30.236C130.782 29.8 130.507 29.4181 130.14 29.139C129.774 28.8599 129.332 28.6963 128.873 28.6691C128.413 28.6419 127.955 28.7523 127.558 28.9863C127.161 29.2202 126.843 29.567 126.644 29.9825C126.445 30.398 126.375 30.8634 126.441 31.3192C126.481 31.6179 126.58 31.9057 126.732 32.1663C126.883 32.4268 127.085 32.6549 127.324 32.8374C127.564 33.02 127.838 33.1535 128.129 33.2302C128.42 33.307 128.724 33.3255 129.023 33.2847Z" fill="white" stroke="#263238" stroke-width="0.628642" stroke-linecap="round" stroke-linejoin="round"/>
<path d="M142.488 89.0399L125.776 82.5707L119.16 99.6618L135.872 106.131L142.488 89.0399Z" fill="#263238" stroke="#263238" stroke-width="0.626911" stroke-linecap="round" stroke-linejoin="round"/>
<path d="M136.513 93.7838L130.984 96.4421L128.267 94.3906C128.133 94.2897 127.979 94.2208 127.815 94.1894C127.65 94.158 127.481 94.1649 127.32 94.2095L120.853 95.9893L119.236 100.151L135.993 106.654L139.412 97.846L138.012 94.3589C137.957 94.2187 137.873 94.0916 137.765 93.9855C137.658 93.8794 137.53 93.7968 137.389 93.7427C137.248 93.6887 137.098 93.6644 136.947 93.6715C136.796 93.6786 136.649 93.7168 136.513 93.7838Z" fill="white" stroke="#263238" stroke-width="0.628642" stroke-linecap="round" stroke-linejoin="round"/>
<path d="M129.468 92.2033C129.893 92.38 130.362 92.4259 130.814 92.3351C131.266 92.2442 131.68 92.0207 132.005 91.6932C132.329 91.3656 132.548 90.9489 132.635 90.4961C132.721 90.0433 132.67 89.5751 132.489 89.1512C132.308 88.7273 132.005 88.367 131.618 88.1163C131.232 87.8655 130.779 87.7357 130.318 87.7435C129.857 87.7512 129.409 87.8962 129.031 88.1598C128.653 88.4233 128.362 88.7937 128.195 89.2234C127.969 89.7873 127.976 90.418 128.214 90.9768C128.453 91.5357 128.904 91.9768 129.468 92.2033Z" fill="white" stroke="#263238" stroke-width="0.628642" stroke-linecap="round" stroke-linejoin="round"/>
<path d="M112.735 111.77L95.0615 108.52L91.7377 126.594L109.411 129.845L112.735 111.77Z" fill="#263238" stroke="#263238" stroke-width="0.628642" stroke-linecap="round" stroke-linejoin="round"/>
<path d="M107.753 119.774L98.5865 111.967L96.4082 123.809L107.753 119.774Z" fill="white" stroke="#263238" stroke-width="0.628642" stroke-linecap="round" stroke-linejoin="round"/>
<path d="M141.758 175.047H123.788V193.425H141.758V175.047Z" fill="#263238" stroke="#263238" stroke-width="0.628642" stroke-linecap="round" stroke-linejoin="round"/>
<path d="M138.303 183.819L127.873 177.796V189.838L138.303 183.819Z" fill="white" stroke="#263238" stroke-width="0.628642" stroke-linecap="round" stroke-linejoin="round"/>
<path d="M114.691 42.5642L98.8291 51.0089L107.465 67.2308L123.327 58.7861L114.691 42.5642Z" fill="#263238" stroke="#263238" stroke-width="0.628642" stroke-linecap="round" stroke-linejoin="round"/>
<path d="M115.763 51.934L103.726 51.5219L109.386 62.1507L115.763 51.934Z" fill="white" stroke="#263238" stroke-width="0.628642" stroke-linecap="round" stroke-linejoin="round"/>
<g opacity="0.2">
<path d="M185.884 108.117L178.408 98.7065L170.931 108.117H173.856V122.283H182.959V108.117H185.884Z" stroke="black" stroke-width="0.628642" stroke-linecap="round" stroke-linejoin="round"/>
<path d="M130.707 154.523L123.235 145.112L115.758 154.523H118.683V168.693H127.786V154.523H130.707Z" stroke="black" stroke-width="0.628642" stroke-linecap="round" stroke-linejoin="round"/>
<path d="M151.63 123.03L144.153 113.62L136.681 123.03H139.602V137.196H148.704V123.03H151.63Z" stroke="black" stroke-width="0.628642" stroke-linecap="round" stroke-linejoin="round"/>
<path d="M76.8614 108.357L69.3845 98.9466L61.9121 108.357H64.8377V122.523H73.9404V108.357H76.8614Z" stroke="black" stroke-width="0.628642" stroke-linecap="round" stroke-linejoin="round"/>
</g>
<g opacity="0.2">
<path d="M77.3542 57.7717L69.8773 48.361L62.4004 57.7717H65.3259V71.9375H74.4287V57.7717H77.3542Z" stroke="black" stroke-width="0.628642" stroke-linecap="round" stroke-linejoin="round"/>
<path d="M180.148 67.3635L172.671 57.9528L165.198 67.3635H168.119V81.5293H177.227V67.3635H180.148Z" stroke="black" stroke-width="0.628642" stroke-linecap="round" stroke-linejoin="round"/>
<path d="M110.862 92.2125L103.385 82.8018L95.9131 92.2125H98.8341V106.383H107.937V92.2125H110.862Z" stroke="black" stroke-width="0.628642" stroke-linecap="round" stroke-linejoin="round"/>
</g>
<path d="M19.0128 196.789C18.7682 196.871 16.5582 204.801 15.9876 205.847C15.417 206.893 16.8933 207.808 17.6225 208.383C18.3516 208.958 20.4846 211.49 22.8576 212.309C25.2307 213.129 28.5004 212.961 28.0883 212.228C27.6762 211.494 24.574 209.936 23.8359 208.954C23.0977 207.971 22.1195 203.886 22.1195 203.886L25.0631 198.162L19.0128 196.789Z" fill="white" stroke="#263238" stroke-width="0.628642" stroke-linecap="round" stroke-linejoin="round"/>
<path d="M25.0497 198.207L24.8776 198.135L19.0129 196.776C18.7407 197.344 18.5282 197.939 18.3789 198.551C20.016 199.585 21.7763 200.41 23.6186 201.006L25.0497 198.207Z" fill="#263238" stroke="#263238" stroke-width="0.628642" stroke-linecap="round" stroke-linejoin="round"/>
<path d="M23.8364 208.972C23.2929 208.247 22.6182 205.833 22.3012 204.62C21.825 204.841 21.3791 205.123 20.9742 205.457C20.592 205.788 20.2621 206.174 19.996 206.603L16.7988 203.596C16.574 204.366 16.3033 205.123 15.9881 205.86C15.413 206.925 16.8939 207.821 17.623 208.397C18.3521 208.972 20.4851 211.503 22.8582 212.323C25.2312 213.143 28.501 212.975 28.0888 212.241C27.6767 211.508 24.5746 209.954 23.8364 208.972Z" fill="#CFCFCF" stroke="#263238" stroke-width="0.628642" stroke-linecap="round" stroke-linejoin="round"/>
<path d="M50.9053 199.077C50.9053 199.077 55.3208 211.757 55.6514 212.491C55.982 213.224 57.0417 213.396 57.7753 213.224C58.509 213.052 61.5387 211.508 64.0748 211.182C66.6109 210.856 68.3272 208.809 68.4088 208.157C68.4903 207.504 62.6029 208.646 60.882 208.157C59.1611 207.667 57.7119 206.11 57.5308 205.539C57.3496 204.968 56.7971 196.482 56.7971 196.482L50.9053 199.077Z" fill="white" stroke="#263238" stroke-width="0.628642" stroke-linecap="round" stroke-linejoin="round"/>
<path d="M56.7965 196.459L50.9092 199.076L51.4572 200.639C53.3722 200.378 55.234 199.815 56.9731 198.972C56.8735 197.55 56.7965 196.459 56.7965 196.459Z" fill="#263238" stroke="#263238" stroke-width="0.628642" stroke-linecap="round" stroke-linejoin="round"/>
<path d="M64.0744 211.182C66.6059 210.856 68.3269 208.809 68.4084 208.156C68.4899 207.504 62.6026 208.646 60.8817 208.156C59.9932 207.873 59.1783 207.396 58.495 206.762C58.4634 206.925 58.4423 207.09 58.4316 207.255C58.371 207.801 58.3985 208.353 58.5131 208.89C58.5131 208.89 56.2805 210.036 54.9717 210.643C55.3249 211.639 55.5785 212.332 55.651 212.49C55.9771 213.224 57.0413 213.396 57.775 213.224C58.5086 213.052 61.5383 211.508 64.0744 211.182Z" fill="#CFCFCF" stroke="#263238" stroke-width="0.628642" stroke-linecap="round" stroke-linejoin="round"/>
<path d="M43.6129 121.803C43.6129 121.803 45.5059 121.214 48.2639 124.488C51.0219 127.763 56.8685 144.492 56.8685 144.492C56.8685 144.492 55.6639 147.771 52.5572 147.254C49.4505 146.738 44.1926 129.76 44.1926 129.76C44.1926 129.76 42.2407 120.644 43.6129 121.803Z" fill="white" stroke="#263238" stroke-width="0.628642" stroke-linecap="round" stroke-linejoin="round"/>
<path d="M32.6363 115.236C32.6363 115.236 33.9586 118.977 33.3382 120.671C32.7178 122.365 28.5876 121.604 26.5451 124.099C24.5027 126.594 29.1129 144.265 29.1129 144.265C29.1129 144.265 24.2853 153.608 23.2709 159.686C22.2564 165.763 21.636 184.838 21.4594 185.694C21.2828 186.55 18.8916 195.974 19.3581 195.893C19.8245 195.811 23.5607 197.917 24.7291 198.307C25.8975 198.696 26.441 198.932 26.441 198.932C26.441 198.932 32.985 189.199 34.9323 184.603C36.8797 180.006 38.981 169.495 38.981 169.495L49.8046 197.999L56.969 195.974L55.7237 170.74C55.7237 170.74 54.9447 161.085 52.5309 154.858C50.9092 150.807 48.9013 146.922 46.5349 143.256C46.5349 143.256 48.6362 135.62 48.0112 132.038C47.3863 128.456 43.5731 121.762 43.5731 121.762C43.5731 121.762 41.6303 121.681 40.8559 120.983C40.0815 120.286 38.673 115.608 38.673 115.608L32.6363 115.236Z" fill="#263238" stroke="#263238" stroke-width="0.628642" stroke-linecap="round" stroke-linejoin="round"/>
<path d="M46.1223 127.69L43.9077 122.288C43.7266 121.952 43.6134 121.762 43.6134 121.762C43.6134 121.762 41.6706 121.681 40.8961 120.983C40.1217 120.286 38.7133 115.608 38.7133 115.608L32.6403 115.218C32.6403 115.218 33.9627 118.959 33.3422 120.653C32.9754 121.658 31.3994 121.808 29.751 122.265C30.9045 122.976 31.79 124.05 32.2689 125.317C33.7045 129.108 35.0133 130.679 35.0133 130.679L46.1223 127.69Z" fill="white" stroke="#263238" stroke-width="0.628642" stroke-linecap="round" stroke-linejoin="round"/>
<path d="M39.0982 116.853C38.8627 116.142 38.7087 115.626 38.7087 115.626L32.6357 115.236C32.6357 115.236 33.7 118.257 33.4645 120.114C35.5908 119.528 37.5307 118.405 39.0982 116.853Z" fill="#263238" stroke="#263238" stroke-width="0.628642" stroke-linecap="round" stroke-linejoin="round"/>
<path d="M39.0215 169.513L41.2587 159.659" stroke="#858585" stroke-width="0.628642" stroke-linecap="round" stroke-linejoin="round"/>
<path d="M18.8324 194.824L18.5879 196.635C19.6989 197.722 21.0131 198.579 22.4554 199.158C23.6379 199.638 24.8477 200.048 26.0784 200.385L27.8899 198.012C26.1909 197.499 24.5357 196.851 22.94 196.074C19.8333 194.602 19.0136 194.262 19.0136 194.262L18.8324 194.824Z" fill="white" stroke="#263238" stroke-width="0.628642" stroke-linecap="round" stroke-linejoin="round"/>
<path d="M48.5371 197.36L49.4429 199.733C49.4429 199.733 54.1074 199.077 55.8238 198.261C57.5402 197.446 58.541 197.034 58.541 197.034L58.215 194.09L48.5371 197.36Z" fill="white" stroke="#263238" stroke-width="0.628642" stroke-linecap="round" stroke-linejoin="round"/>
<path d="M48.0522 132.056C47.4318 128.474 43.6141 121.78 43.6141 121.78C43.0146 121.747 42.4207 121.646 41.8433 121.482C41.8433 121.531 41.8841 121.572 41.9022 121.622C42.2917 122.559 43.7726 126.685 43.7726 126.685L34.9733 127.618C34.447 126.661 33.9782 125.673 33.5694 124.661C33.0387 123.549 32.2073 122.607 31.1692 121.943C29.6656 122.319 27.75 122.654 26.5635 124.122C24.5754 126.563 28.9546 143.595 29.1267 144.265C43.2608 144.573 46.5759 143.278 46.5759 143.278C46.5759 143.278 48.6772 135.638 48.0522 132.056Z" fill="#CFCFCF" stroke="#263238" stroke-width="0.628642" stroke-linecap="round" stroke-linejoin="round"/>
<path d="M62.9397 132.276L45.0322 130.779L43.5008 149.092L61.4083 150.59L62.9397 132.276Z" fill="#263238" stroke="#263238" stroke-width="0.628642" stroke-linecap="round" stroke-linejoin="round"/>
<path d="M58.7711 140.729L48.8804 133.859L47.875 145.86L58.7711 140.729Z" fill="white" stroke="#263238" stroke-width="0.628642" stroke-linecap="round" stroke-linejoin="round"/>
<path d="M31.1548 126.219C31.1548 126.219 30.2989 123.026 27.7311 123.257C25.1633 123.488 23.4469 126.06 23.9134 129.878C24.3798 133.695 27.1831 148.568 27.7311 149.736C28.2791 150.905 49.9218 153.083 49.9218 153.083C49.9218 153.083 52.4126 154.016 53.1915 154.016C53.9705 154.016 57.9421 153.862 58.3316 153.395C58.7211 152.929 59.1875 152.616 58.8796 152.381C58.5716 152.145 56.3843 152.462 55.8408 152.227C55.1385 151.83 54.4623 151.388 53.8165 150.905C53.8165 150.905 55.7638 150.746 56.0808 150.515C56.3979 150.284 57.4032 149.424 56.6243 149.424C55.8454 149.424 54.6769 149.659 53.667 149.659C52.6571 149.659 50.4969 150.434 50.4969 150.434C47.6882 149.641 44.9233 148.701 42.2139 147.617C38.9442 146.217 34.583 144.27 34.583 144.27L31.1548 126.219Z" fill="white" stroke="#263238" stroke-width="0.628642" stroke-linecap="round" stroke-linejoin="round"/>
<path d="M39.2528 105.586C39.2528 105.586 41.0643 104.725 40.5027 100.835C39.9412 96.9449 32.5594 96.7818 28.3431 98.4212C24.1269 100.061 20.7892 101.768 21.5501 106.673C22.3109 111.577 26.0788 112.746 26.7943 113.371C27.5098 113.995 27.8903 115.159 27.4374 116.02C26.9845 116.88 26.346 116.717 26.346 116.717C26.346 116.717 26.269 117.578 28.4473 117.809C29.3493 117.882 30.2491 117.644 30.9972 117.135C31.7453 116.626 32.2965 115.876 32.5594 115.01C32.8673 113.688 32.0114 111.586 33.2568 109.87C34.5022 108.153 35.9061 106.365 35.8291 105.201C35.7521 104.037 35.6706 103.561 35.6706 103.561L39.2528 105.586Z" fill="#263238" stroke="#263238" stroke-width="0.628642" stroke-linecap="round" stroke-linejoin="round"/>
<path d="M34.4832 102.66C34.4718 105.029 33.6755 107.327 32.2188 109.195C29.8186 112.13 28.5959 112.397 28.5959 112.397C28.5959 112.397 27.9301 115.196 33.5276 117.197C39.1251 119.199 40.4611 115.73 40.7283 113.194C40.9955 110.658 40.3298 106.26 39.1297 104.929C37.9296 103.598 34.4832 102.66 34.4832 102.66Z" fill="white" stroke="#263238" stroke-width="0.628642" stroke-linecap="round" stroke-linejoin="round"/>
<path d="M30.2177 113.063C30.2177 113.063 27.9534 109.331 26.7533 111.595C25.5532 113.86 27.0205 115.331 28.6191 115.331C29.4807 115.356 30.3392 115.219 31.1507 114.928" fill="white"/>
<path d="M30.2177 113.063C30.2177 113.063 27.9534 109.331 26.7533 111.595C25.5532 113.86 27.0205 115.331 28.6191 115.331C29.4807 115.356 30.3392 115.219 31.1507 114.928" stroke="#263238" stroke-width="0.628642" stroke-linecap="round" stroke-linejoin="round"/>
<path d="M36.6846 106.519C36.6846 106.519 37.3095 107.918 38.1655 107.918C39.0214 107.918 39.8773 107.374 39.4878 108.371C39.0984 109.367 38.6319 109.616 38.6319 109.616" stroke="#263238" stroke-width="0.628642" stroke-linecap="round" stroke-linejoin="round"/>
<path d="M34.584 111.423C35.2406 111.66 35.945 111.735 36.6367 111.64C37.3284 111.545 37.9868 111.284 38.5557 110.88" stroke="#263238" stroke-width="0.628642" stroke-linecap="round" stroke-linejoin="round"/>
<path d="M35.1709 107.669C35.3792 108.185 35.352 108.688 35.112 108.783C34.872 108.878 34.5097 108.534 34.3014 108.013C34.0931 107.492 34.1202 106.999 34.3602 106.903C34.6003 106.808 34.9626 107.148 35.1709 107.669Z" fill="#263238"/>
<path d="M38.3052 106.519C38.5135 107.035 38.4863 107.538 38.2463 107.633C38.0063 107.728 37.644 107.384 37.4402 106.863C37.2364 106.342 37.2545 105.848 37.4945 105.753C37.7345 105.658 38.1104 105.998 38.3052 106.519Z" fill="#263238"/>
<path d="M64.6043 134.588C64.2351 134.342 63.7888 134.241 63.3498 134.302C62.7701 134.366 61.9912 134.515 61.9912 134.81C61.9912 135.262 64.1423 135.747 64.799 135.262C65.107 135.045 64.8986 134.787 64.6043 134.588Z" fill="white" stroke="#263238" stroke-width="0.628642" stroke-linecap="round" stroke-linejoin="round"/>
<path d="M64.9207 135.783C64.5506 135.54 64.1056 135.437 63.6662 135.493C63.0866 135.561 62.3076 135.706 62.3076 136.005C62.3076 136.458 64.4588 136.938 65.1154 136.458C65.4234 136.236 65.2105 135.978 64.9207 135.783Z" fill="white" stroke="#263238" stroke-width="0.628642" stroke-linecap="round" stroke-linejoin="round"/>
<path d="M64.8299 137.047C64.4598 136.803 64.0148 136.7 63.5754 136.757C62.9957 136.825 62.2168 136.97 62.2168 137.269C62.2168 137.721 64.3679 138.206 65.0246 137.721C65.3326 137.504 65.1242 137.246 64.8299 137.047Z" fill="white" stroke="#263238" stroke-width="0.628642" stroke-linecap="round" stroke-linejoin="round"/>
<path d="M64.0331 138.165C63.7549 137.983 63.421 137.906 63.0911 137.948C62.6383 137.998 62.0586 138.111 62.0586 138.333C62.0586 138.686 63.6753 139.035 64.1645 138.686C64.4135 138.509 64.255 138.315 64.0331 138.165Z" fill="white" stroke="#263238" stroke-width="0.628642" stroke-linecap="round" stroke-linejoin="round"/>
<path d="M3.43359 213.283H209.037" stroke="#263238" stroke-width="0.628642" stroke-linecap="round" stroke-linejoin="round"/>
</svg>
