<svg width="121" height="122" viewBox="0 0 121 122" fill="none" xmlns="http://www.w3.org/2000/svg">
<rect width="121" height="122" rx="5" fill="#D54545"/>
<path d="M81.25 66.0625C81.25 66.5101 81.0722 66.9393 80.7557 67.2557C80.4393 67.5722 80.0101 67.75 79.5625 67.75H74.5V71.125H77.875C78.3226 71.125 78.7518 71.3028 79.0682 71.6193C79.3847 71.9357 79.5625 72.3649 79.5625 72.8125C79.5625 73.2601 79.3847 73.6893 79.0682 74.0057C78.7518 74.3222 78.3226 74.5 77.875 74.5H74.5V77.875C74.5 78.3226 74.3222 78.7518 74.0057 79.0682C73.6893 79.3847 73.2601 79.5625 72.8125 79.5625C72.3649 79.5625 71.9357 79.3847 71.6193 79.0682C71.3028 78.7518 71.125 78.3226 71.125 77.875V66.0625C71.125 65.6149 71.3028 65.1857 71.6193 64.8693C71.9357 64.5528 72.3649 64.375 72.8125 64.375H79.5625C80.0101 64.375 80.4393 64.5528 80.7557 64.8693C81.0722 65.1857 81.25 65.6149 81.25 66.0625ZM53.4062 70.2812C53.4062 71.8477 52.784 73.35 51.6763 74.4576C50.5687 75.5652 49.0664 76.1875 47.5 76.1875H45.8125V77.875C45.8125 78.3226 45.6347 78.7518 45.3182 79.0682C45.0018 79.3847 44.5726 79.5625 44.125 79.5625C43.6774 79.5625 43.2482 79.3847 42.9318 79.0682C42.6153 78.7518 42.4375 78.3226 42.4375 77.875V66.0625C42.4375 65.6149 42.6153 65.1857 42.9318 64.8693C43.2482 64.5528 43.6774 64.375 44.125 64.375H47.5C49.0664 64.375 50.5687 64.9973 51.6763 66.1049C52.784 67.2125 53.4062 68.7148 53.4062 70.2812ZM50.0312 70.2812C50.0312 69.6099 49.7646 68.9661 49.2899 68.4914C48.8152 68.0167 48.1713 67.75 47.5 67.75H45.8125V72.8125H47.5C48.1713 72.8125 48.8152 72.5458 49.2899 72.0711C49.7646 71.5964 50.0312 70.9526 50.0312 70.2812ZM68.5938 71.9688C68.5938 73.9827 67.7937 75.9142 66.3696 77.3383C64.9455 78.7624 63.014 79.5625 61 79.5625H57.625C57.1774 79.5625 56.7482 79.3847 56.4318 79.0682C56.1153 78.7518 55.9375 78.3226 55.9375 77.875V66.0625C55.9375 65.6149 56.1153 65.1857 56.4318 64.8693C56.7482 64.5528 57.1774 64.375 57.625 64.375H61C63.014 64.375 64.9455 65.1751 66.3696 66.5992C67.7937 68.0233 68.5938 69.9548 68.5938 71.9688ZM65.2188 71.9688C65.2188 70.8499 64.7743 69.7768 63.9831 68.9856C63.1919 68.1945 62.1189 67.75 61 67.75H59.3125V76.1875H61C62.1189 76.1875 63.1919 75.743 63.9831 74.9519C64.7743 74.1607 65.2188 73.0876 65.2188 71.9688ZM42.4375 57.625V42.4375C42.4375 41.5424 42.7931 40.684 43.426 40.051C44.0589 39.4181 44.9174 39.0625 45.8125 39.0625H66.0625C66.2842 39.0623 66.5037 39.1058 66.7086 39.1905C66.9134 39.2752 67.0996 39.3994 67.2564 39.5561L79.0689 51.3686C79.2256 51.5254 79.3498 51.7116 79.4345 51.9164C79.5192 52.1213 79.5627 52.3408 79.5625 52.5625V57.625C79.5625 58.0726 79.3847 58.5018 79.0682 58.8182C78.7518 59.1347 78.3226 59.3125 77.875 59.3125C77.4274 59.3125 76.9982 59.1347 76.6818 58.8182C76.3653 58.5018 76.1875 58.0726 76.1875 57.625V54.25H66.0625C65.6149 54.25 65.1857 54.0722 64.8693 53.7557C64.5528 53.4393 64.375 53.0101 64.375 52.5625V42.4375H45.8125V57.625C45.8125 58.0726 45.6347 58.5018 45.3182 58.8182C45.0018 59.1347 44.5726 59.3125 44.125 59.3125C43.6774 59.3125 43.2482 59.1347 42.9318 58.8182C42.6153 58.5018 42.4375 58.0726 42.4375 57.625ZM67.75 50.875H73.8018L67.75 44.8232V50.875Z" fill="white"/>
</svg>
