<svg width="32" height="32" viewBox="0 0 32 32" fill="none" xmlns="http://www.w3.org/2000/svg">
<path d="M16 29C13.4288 29 10.9154 28.2376 8.77759 26.8091C6.63975 25.3806 4.97351 23.3503 3.98957 20.9749C3.00563 18.5994 2.74819 15.9856 3.2498 13.4638C3.75141 10.9421 4.98953 8.62569 6.80762 6.80761C8.6257 4.98953 10.9421 3.7514 13.4638 3.24979C15.9856 2.74818 18.5995 3.00563 20.9749 3.98957C23.3503 4.97351 25.3807 6.63975 26.8091 8.77759C28.2376 10.9154 29 13.4288 29 16C28.9964 19.4467 27.6256 22.7512 25.1884 25.1884C22.7512 27.6256 19.4467 28.9964 16 29ZM16 5C13.8244 5 11.6977 5.64514 9.88873 6.85383C8.07979 8.06253 6.66989 9.78049 5.83733 11.7905C5.00477 13.8005 4.78693 16.0122 5.21137 18.146C5.63581 20.2798 6.68345 22.2398 8.22183 23.7782C9.76021 25.3166 11.7202 26.3642 13.854 26.7886C15.9878 27.2131 18.1995 26.9952 20.2095 26.1627C22.2195 25.3301 23.9375 23.9202 25.1462 22.1113C26.3549 20.3023 27 18.1756 27 16C26.9967 13.0836 25.8367 10.2877 23.7745 8.22548C21.7123 6.1633 18.9164 5.00331 16 5ZM20.7075 15.7075C20.8005 15.6146 20.8742 15.5043 20.9246 15.3829C20.9749 15.2615 21.0008 15.1314 21.0008 15C21.0008 14.8686 20.9749 14.7385 20.9246 14.6171C20.8742 14.4957 20.8005 14.3854 20.7075 14.2925L16.7075 10.2925C16.6146 10.1995 16.5043 10.1258 16.3829 10.0754C16.2615 10.0251 16.1314 9.99921 16 9.99921C15.8686 9.99921 15.7385 10.0251 15.6171 10.0754C15.4957 10.1258 15.3854 10.1995 15.2925 10.2925L11.2925 14.2925C11.1049 14.4801 10.9994 14.7346 10.9994 15C10.9994 15.2654 11.1049 15.5199 11.2925 15.7075C11.4801 15.8951 11.7346 16.0006 12 16.0006C12.2654 16.0006 12.5199 15.8951 12.7075 15.7075L15 13.4137V21C15 21.2652 15.1054 21.5196 15.2929 21.7071C15.4804 21.8946 15.7348 22 16 22C16.2652 22 16.5196 21.8946 16.7071 21.7071C16.8946 21.5196 17 21.2652 17 21V13.4137L19.2925 15.7075C19.3854 15.8005 19.4957 15.8742 19.6171 15.9246C19.7385 15.9749 19.8686 16.0008 20 16.0008C20.1314 16.0008 20.2615 15.9749 20.3829 15.9246C20.5043 15.8742 20.6146 15.8005 20.7075 15.7075Z" fill="white"/>
</svg>
