<svg width="27" height="26" viewBox="0 0 27 26" fill="none" xmlns="http://www.w3.org/2000/svg">
<path d="M24.6667 6.5H19.6667C19.6667 4.9087 19.0346 3.38258 17.9094 2.25736C16.7842 1.13214 15.258 0.5 13.6667 0.5C12.0754 0.5 10.5493 1.13214 9.42411 2.25736C8.29889 3.38258 7.66675 4.9087 7.66675 6.5H2.66675C2.13632 6.5 1.62761 6.71071 1.25253 7.08579C0.877462 7.46086 0.666748 7.96957 0.666748 8.5V23.5C0.666748 24.0304 0.877462 24.5391 1.25253 24.9142C1.62761 25.2893 2.13632 25.5 2.66675 25.5H24.6667C25.1972 25.5 25.7059 25.2893 26.081 24.9142C26.456 24.5391 26.6667 24.0304 26.6667 23.5V8.5C26.6667 7.96957 26.456 7.46086 26.081 7.08579C25.7059 6.71071 25.1972 6.5 24.6667 6.5ZM13.6667 2.5C14.7276 2.5 15.745 2.92143 16.4952 3.67157C17.2453 4.42172 17.6667 5.43913 17.6667 6.5H9.66675C9.66675 5.43913 10.0882 4.42172 10.8383 3.67157C11.5885 2.92143 12.6059 2.5 13.6667 2.5ZM24.6667 23.5H2.66675V8.5H7.66675V10.5C7.66675 10.7652 7.77211 11.0196 7.95964 11.2071C8.14718 11.3946 8.40153 11.5 8.66675 11.5C8.93196 11.5 9.18632 11.3946 9.37385 11.2071C9.56139 11.0196 9.66675 10.7652 9.66675 10.5V8.5H17.6667V10.5C17.6667 10.7652 17.7721 11.0196 17.9596 11.2071C18.1472 11.3946 18.4015 11.5 18.6667 11.5C18.932 11.5 19.1863 11.3946 19.3739 11.2071C19.5614 11.0196 19.6667 10.7652 19.6667 10.5V8.5H24.6667V23.5Z" fill="#DBB11C"/>
</svg>
