<svg width="26" height="24" viewBox="0 0 26 24" fill="none" xmlns="http://www.w3.org/2000/svg">
<path d="M23 3.28564H19.535L17.8312 0.730645C17.74 0.593834 17.6164 0.481648 17.4714 0.404027C17.3264 0.326405 17.1645 0.285743 17 0.285645H9C8.83554 0.285743 8.67363 0.326405 8.52864 0.404027C8.38364 0.481648 8.26003 0.593834 8.16875 0.730645L6.46375 3.28564H3C2.20435 3.28564 1.44129 3.60172 0.87868 4.16432C0.316071 4.72693 0 5.49 0 6.28564V20.2856C0 21.0813 0.316071 21.8444 0.87868 22.407C1.44129 22.9696 2.20435 23.2856 3 23.2856H23C23.7956 23.2856 24.5587 22.9696 25.1213 22.407C25.6839 21.8444 26 21.0813 26 20.2856V6.28564C26 5.49 25.6839 4.72693 25.1213 4.16432C24.5587 3.60172 23.7956 3.28564 23 3.28564ZM17.5 12.7856C17.5 13.6757 17.2361 14.5457 16.7416 15.2857C16.2471 16.0257 15.5443 16.6025 14.7221 16.9431C13.8998 17.2837 12.995 17.3728 12.1221 17.1992C11.2492 17.0255 10.4474 16.597 9.81802 15.9676C9.18868 15.3383 8.7601 14.5365 8.58647 13.6636C8.41283 12.7906 8.50195 11.8858 8.84254 11.0636C9.18314 10.2413 9.75991 9.5385 10.4999 9.04403C11.24 8.54956 12.11 8.28564 13 8.28564C14.1935 8.28564 15.3381 8.75975 16.182 9.60366C17.0259 10.4476 17.5 11.5922 17.5 12.7856Z" fill="#DBB11C"/>
</svg>
