<svg width="78" height="78" viewBox="0 0 78 78" fill="none" xmlns="http://www.w3.org/2000/svg">
<circle cx="39" cy="39" r="39" fill="#FFD527"/>
<path d="M37.8286 44.8286L36.0829 34.28V27.0743H41.8771V34.28L40.1686 44.8286H37.8286ZM38.9429 53.4457C37.7543 53.4457 36.9 53.1733 36.38 52.6286C35.8848 52.0838 35.6371 51.4152 35.6371 50.6229V49.7314C35.6371 48.939 35.8848 48.2705 36.38 47.7257C36.9 47.181 37.7543 46.9086 38.9429 46.9086C40.1314 46.9086 40.9733 47.181 41.4686 47.7257C41.9886 48.2705 42.2486 48.939 42.2486 49.7314V50.6229C42.2486 51.4152 41.9886 52.0838 41.4686 52.6286C40.9733 53.1733 40.1314 53.4457 38.9429 53.4457Z" fill="black"/>
</svg>
