<svg width="44" height="48" viewBox="0 0 44 48" fill="none" xmlns="http://www.w3.org/2000/svg">
<path d="M41.8478 11.2679L23.5293 1.24482C23.0399 0.974377 22.4898 0.83252 21.9306 0.83252C21.3714 0.83252 20.8214 0.974377 20.3319 1.24482L2.01348 11.2721C1.49034 11.5583 1.05364 11.9798 0.748991 12.4924C0.44434 13.005 0.282909 13.5901 0.281555 14.1864V34.0952C0.282909 34.6915 0.44434 35.2765 0.748991 35.7892C1.05364 36.3018 1.49034 36.7233 2.01348 37.0095L20.3319 47.0368C20.8214 47.3072 21.3714 47.4491 21.9306 47.4491C22.4898 47.4491 23.0399 47.3072 23.5293 47.0368L41.8478 37.0095C42.3709 36.7233 42.8076 36.3018 43.1122 35.7892C43.4169 35.2765 43.5783 34.6915 43.5797 34.0952V14.1885C43.5794 13.5911 43.4185 13.0047 43.1138 12.4909C42.8091 11.9771 42.3718 11.5547 41.8478 11.2679ZM21.9306 4.15912L38.6566 13.3183L32.4575 16.7093L15.7315 7.55011L21.9306 4.15912ZM21.9306 22.4776L5.20464 13.3183L12.2635 9.45273L28.9895 18.6119L21.9306 22.4776ZM40.2491 34.1035L23.5959 43.219V25.3565L30.2572 21.7115V29.1388C30.2572 29.5805 30.4326 30.0041 30.7449 30.3164C31.0572 30.6287 31.4808 30.8041 31.9225 30.8041C32.3642 30.8041 32.7877 30.6287 33.1 30.3164C33.4124 30.0041 33.5878 29.5805 33.5878 29.1388V19.888L40.2491 16.243V34.0952V34.1035Z" fill="#373737"/>
</svg>
