<svg width="31" height="24" viewBox="0 0 31 24" fill="none" xmlns="http://www.w3.org/2000/svg">
<path d="M29.9319 13.7812C29.8269 13.86 29.7073 13.9173 29.5801 13.9499C29.4529 13.9825 29.3205 13.9897 29.1905 13.9712C29.0605 13.9526 28.9354 13.9086 28.8224 13.8417C28.7094 13.7748 28.6107 13.6863 28.5319 13.5812C27.9292 12.771 27.1447 12.1137 26.2415 11.6621C25.3383 11.2105 24.3417 10.9773 23.3319 10.9812C23.1353 10.9812 22.943 10.9232 22.7791 10.8145C22.6153 10.7058 22.4871 10.5511 22.4107 10.37C22.3588 10.2469 22.332 10.1148 22.332 9.98122C22.332 9.84769 22.3588 9.7155 22.4107 9.59247C22.4871 9.41129 22.6153 9.25667 22.7791 9.14795C22.943 9.03924 23.1353 8.98124 23.3319 8.98122C23.893 8.98117 24.4428 8.82377 24.919 8.5269C25.3951 8.23002 25.7784 7.80558 26.0254 7.30177C26.2724 6.79797 26.3731 6.23499 26.3162 5.6768C26.2592 5.1186 26.0469 4.58756 25.7033 4.144C25.3597 3.70043 24.8986 3.36212 24.3723 3.16749C23.846 2.97286 23.2758 2.92971 22.7262 3.04295C22.1767 3.15619 21.6699 3.42127 21.2635 3.80808C20.857 4.1949 20.5672 4.68795 20.4269 5.23122C20.3941 5.35844 20.3365 5.47794 20.2575 5.58291C20.1785 5.68789 20.0796 5.77627 19.9664 5.84301C19.8532 5.90975 19.728 5.95355 19.5979 5.9719C19.4678 5.99025 19.3354 5.9828 19.2082 5.94997C19.081 5.91714 18.9614 5.85957 18.8565 5.78056C18.7515 5.70154 18.6631 5.60263 18.5964 5.48945C18.5296 5.37628 18.4858 5.25107 18.4675 5.12098C18.4491 4.99088 18.4566 4.85844 18.4894 4.73122C18.6841 3.97786 19.052 3.28034 19.5637 2.69416C20.0754 2.10798 20.7168 1.64931 21.437 1.35466C22.1571 1.06001 22.9361 0.937498 23.712 0.996884C24.4878 1.05627 25.2391 1.29591 25.906 1.69674C26.5729 2.09756 27.1371 2.64851 27.5536 3.30574C27.9702 3.96298 28.2276 4.70835 28.3053 5.48257C28.3831 6.25678 28.2791 7.03846 28.0016 7.76541C27.7241 8.49235 27.2808 9.14451 26.7069 9.66997C28.0667 10.2587 29.2487 11.193 30.1357 12.38C30.2145 12.4853 30.2717 12.6051 30.3041 12.7326C30.3365 12.8601 30.3434 12.9927 30.3245 13.1229C30.3056 13.253 30.2612 13.3782 30.1938 13.4912C30.1264 13.6041 30.0374 13.7027 29.9319 13.7812ZM23.1969 21.4812C23.2693 21.595 23.3179 21.7223 23.3397 21.8554C23.3616 21.9885 23.3564 22.1246 23.3243 22.2556C23.2922 22.3866 23.234 22.5098 23.153 22.6177C23.0721 22.7256 22.9702 22.816 22.8535 22.8835C22.7367 22.951 22.6075 22.9941 22.4736 23.0104C22.3397 23.0267 22.2039 23.0157 22.0744 22.9781C21.9449 22.9405 21.8243 22.8771 21.7199 22.7917C21.6155 22.7064 21.5294 22.6007 21.4669 22.4812C20.837 21.4146 19.9398 20.5306 18.864 19.9165C17.7881 19.3024 16.5707 18.9794 15.3319 18.9794C14.0931 18.9794 12.8758 19.3024 11.7999 19.9165C10.724 20.5306 9.82687 21.4146 9.19692 22.4812C9.13441 22.6007 9.04836 22.7064 8.94397 22.7917C8.83958 22.8771 8.71899 22.9405 8.58946 22.9781C8.45993 23.0157 8.32414 23.0267 8.19025 23.0104C8.05637 22.9941 7.92716 22.951 7.81039 22.8835C7.69363 22.816 7.59172 22.7256 7.51081 22.6177C7.42989 22.5098 7.37164 22.3866 7.33955 22.2556C7.30746 22.1246 7.30221 21.9885 7.3241 21.8554C7.34599 21.7223 7.39457 21.595 7.46692 21.4812C8.43642 19.8154 9.91466 18.5046 11.6844 17.7412C10.6886 16.9788 9.95671 15.9234 9.59167 14.7235C9.22664 13.5236 9.2468 12.2395 9.64932 11.0516C10.0518 9.86374 10.8165 8.83188 11.8358 8.10107C12.855 7.37025 14.0777 6.97722 15.3319 6.97722C16.5861 6.97722 17.8088 7.37025 18.8281 8.10107C19.8474 8.83188 20.612 9.86374 21.0145 11.0516C21.417 12.2395 21.4372 13.5236 21.0722 14.7235C20.7071 15.9234 19.9753 16.9788 18.9794 17.7412C20.7492 18.5046 22.2274 19.8154 23.1969 21.4812ZM15.3319 16.9812C16.123 16.9812 16.8964 16.7466 17.5542 16.3071C18.212 15.8676 18.7247 15.2429 19.0274 14.512C19.3302 13.781 19.4094 12.9768 19.2551 12.2009C19.1007 11.4249 18.7198 10.7122 18.1603 10.1528C17.6009 9.59338 16.8882 9.21242 16.1123 9.05808C15.3364 8.90374 14.5321 8.98295 13.8012 9.2857C13.0703 9.58845 12.4456 10.1011 12.006 10.7589C11.5665 11.4167 11.3319 12.1901 11.3319 12.9812C11.3319 14.0421 11.7533 15.0595 12.5035 15.8096C13.2536 16.5598 14.2711 16.9812 15.3319 16.9812ZM8.33192 9.98122C8.33192 9.716 8.22656 9.46165 8.03903 9.27411C7.85149 9.08658 7.59714 8.98122 7.33192 8.98122C6.77083 8.98117 6.221 8.82377 5.74488 8.5269C5.26876 8.23002 4.88544 7.80558 4.63846 7.30177C4.39148 6.79797 4.29073 6.23499 4.34767 5.6768C4.40461 5.1186 4.61694 4.58756 4.96056 4.144C5.30417 3.70043 5.76529 3.36212 6.29155 3.16749C6.8178 2.97286 7.38809 2.92971 7.93763 3.04295C8.48717 3.15619 8.99395 3.42127 9.40039 3.80808C9.80683 4.1949 10.0967 4.68795 10.2369 5.23122C10.3032 5.48815 10.4689 5.70822 10.6974 5.84301C10.926 5.9778 11.1987 6.01627 11.4557 5.94997C11.7126 5.88367 11.9327 5.71801 12.0675 5.48945C12.2023 5.26089 12.2407 4.98815 12.1744 4.73122C11.9797 3.97786 11.6119 3.28034 11.1002 2.69416C10.5885 2.10798 9.94703 1.64931 9.22686 1.35466C8.5067 1.06001 7.72771 0.937498 6.95187 0.996884C6.17603 1.05627 5.42476 1.29591 4.75783 1.69674C4.0909 2.09756 3.52673 2.64851 3.1102 3.30574C2.69367 3.96298 2.43628 4.70835 2.35851 5.48257C2.28074 6.25678 2.38474 7.03846 2.66223 7.76541C2.93972 8.49235 3.38304 9.14451 3.95692 9.66997C2.59853 10.2593 1.41781 11.1935 0.531922 12.38C0.372627 12.5921 0.304141 12.8589 0.341531 13.1216C0.378921 13.3842 0.519124 13.6213 0.731297 13.7806C0.94347 13.9399 1.21023 14.0084 1.4729 13.971C1.73557 13.9336 1.97263 13.7934 2.13192 13.5812C2.73466 12.771 3.51919 12.1137 4.42237 11.6621C5.32555 11.2105 6.32214 10.9773 7.33192 10.9812C7.59714 10.9812 7.85149 10.8759 8.03903 10.6883C8.22656 10.5008 8.33192 10.2464 8.33192 9.98122Z" fill="#DBB11C"/>
</svg>
