<svg width="20" height="20" viewBox="0 0 20 20" fill="none" xmlns="http://www.w3.org/2000/svg">
<path d="M10 0.5C8.07164 0.5 6.18657 1.07183 4.58319 2.14317C2.97982 3.21451 1.73013 4.73726 0.992179 6.51884C0.254225 8.30042 0.061142 10.2608 0.437348 12.1521C0.813554 14.0434 1.74215 15.7807 3.10571 17.1443C4.46928 18.5079 6.20656 19.4365 8.09787 19.8127C9.98919 20.1889 11.9496 19.9958 13.7312 19.2578C15.5127 18.5199 17.0355 17.2702 18.1068 15.6668C19.1782 14.0634 19.75 12.1784 19.75 10.25C19.7473 7.66498 18.7192 5.18661 16.8913 3.35872C15.0634 1.53084 12.585 0.50273 10 0.5ZM10 18.5C8.36831 18.5 6.77326 18.0161 5.41655 17.1096C4.05984 16.2031 3.00242 14.9146 2.378 13.4071C1.75358 11.8996 1.5902 10.2408 1.90853 8.6405C2.22685 7.04016 3.01259 5.57015 4.16637 4.41637C5.32016 3.26259 6.79017 2.47685 8.39051 2.15852C9.99085 1.84019 11.6497 2.00357 13.1571 2.62799C14.6646 3.25242 15.9531 4.30984 16.8596 5.66655C17.7661 7.02325 18.25 8.6183 18.25 10.25C18.2475 12.4373 17.3775 14.5343 15.8309 16.0809C14.2843 17.6275 12.1873 18.4975 10 18.5ZM11.5 14.75C11.5 14.9489 11.421 15.1397 11.2803 15.2803C11.1397 15.421 10.9489 15.5 10.75 15.5C10.3522 15.5 9.97065 15.342 9.68934 15.0607C9.40804 14.7794 9.25 14.3978 9.25 14V10.25C9.05109 10.25 8.86033 10.171 8.71967 10.0303C8.57902 9.88968 8.5 9.69891 8.5 9.5C8.5 9.30109 8.57902 9.11032 8.71967 8.96967C8.86033 8.82902 9.05109 8.75 9.25 8.75C9.64783 8.75 10.0294 8.90804 10.3107 9.18934C10.592 9.47064 10.75 9.85218 10.75 10.25V14C10.9489 14 11.1397 14.079 11.2803 14.2197C11.421 14.3603 11.5 14.5511 11.5 14.75ZM8.5 6.125C8.5 5.9025 8.56598 5.68499 8.6896 5.49998C8.81322 5.31498 8.98892 5.17078 9.19449 5.08564C9.40005 5.00049 9.62625 4.97821 9.84448 5.02162C10.0627 5.06502 10.2632 5.17217 10.4205 5.3295C10.5778 5.48684 10.685 5.68729 10.7284 5.90552C10.7718 6.12375 10.7495 6.34995 10.6644 6.55552C10.5792 6.76109 10.435 6.93679 10.25 7.0604C10.065 7.18402 9.84751 7.25 9.625 7.25C9.32664 7.25 9.04049 7.13147 8.82951 6.9205C8.61853 6.70952 8.5 6.42337 8.5 6.125Z" fill="black"/>
</svg>
