<svg width="27" height="22" viewBox="0 0 27 22" fill="none" xmlns="http://www.w3.org/2000/svg">
<path d="M22.6666 9C22.6666 9.26522 22.5613 9.51957 22.3737 9.70711C22.1862 9.89464 21.9318 10 21.6666 10H16.6666C16.4014 10 16.1471 9.89464 15.9595 9.70711C15.772 9.51957 15.6666 9.26522 15.6666 9C15.6666 8.73478 15.772 8.48043 15.9595 8.29289C16.1471 8.10536 16.4014 8 16.6666 8H21.6666C21.9318 8 22.1862 8.10536 22.3737 8.29289C22.5613 8.48043 22.6666 8.73478 22.6666 9ZM21.6666 12H16.6666C16.4014 12 16.1471 12.1054 15.9595 12.2929C15.772 12.4804 15.6666 12.7348 15.6666 13C15.6666 13.2652 15.772 13.5196 15.9595 13.7071C16.1471 13.8946 16.4014 14 16.6666 14H21.6666C21.9318 14 22.1862 13.8946 22.3737 13.7071C22.5613 13.5196 22.6666 13.2652 22.6666 13C22.6666 12.7348 22.5613 12.4804 22.3737 12.2929C22.1862 12.1054 21.9318 12 21.6666 12ZM26.6666 2V20C26.6666 20.5304 26.4559 21.0391 26.0808 21.4142C25.7058 21.7893 25.1971 22 24.6666 22H2.66663C2.13619 22 1.62749 21.7893 1.25241 21.4142C0.87734 21.0391 0.666626 20.5304 0.666626 20V2C0.666626 1.46957 0.87734 0.960859 1.25241 0.585786C1.62749 0.210714 2.13619 0 2.66663 0H24.6666C25.1971 0 25.7058 0.210714 26.0808 0.585786C26.4559 0.960859 26.6666 1.46957 26.6666 2ZM24.6666 20V2H2.66663V20H24.6666ZM14.6341 15.75C14.7004 16.0069 14.662 16.2797 14.5272 16.5082C14.3924 16.7368 14.1723 16.9024 13.9154 16.9688C13.6584 17.0351 13.3857 16.9966 13.1571 16.8618C12.9286 16.727 12.7629 16.5069 12.6966 16.25C12.3679 14.9675 11.0641 14 9.66538 14C8.26663 14 6.96413 14.9675 6.63413 16.25C6.56782 16.5069 6.40217 16.727 6.17361 16.8618C5.94505 16.9966 5.6723 17.0351 5.41538 16.9688C5.15845 16.9024 4.93838 16.7368 4.80359 16.5082C4.6688 16.2797 4.63032 16.0069 4.69663 15.75C5.02113 14.5422 5.7882 13.5007 6.84538 12.8325C6.28359 12.274 5.90026 11.5614 5.74399 10.7848C5.58771 10.0082 5.66553 9.20273 5.96758 8.47044C6.26963 7.73815 6.78231 7.11202 7.44062 6.67145C8.09893 6.23087 8.87324 5.99567 9.66538 5.99567C10.4575 5.99567 11.2318 6.23087 11.8901 6.67145C12.5484 7.11202 13.0611 7.73815 13.3632 8.47044C13.6652 9.20273 13.743 10.0082 13.5868 10.7848C13.4305 11.5614 13.0472 12.274 12.4854 12.8325C13.5437 13.4997 14.3115 14.5416 14.6354 15.75H14.6341ZM9.66663 12C10.0622 12 10.4489 11.8827 10.7778 11.6629C11.1067 11.4432 11.363 11.1308 11.5144 10.7654C11.6658 10.3999 11.7054 9.99778 11.6282 9.60982C11.551 9.22186 11.3605 8.86549 11.0808 8.58579C10.8011 8.30608 10.4448 8.1156 10.0568 8.03843C9.66884 7.96126 9.26671 8.00087 8.90126 8.15224C8.53581 8.30362 8.22345 8.55996 8.00369 8.88886C7.78392 9.21776 7.66663 9.60444 7.66663 10C7.66663 10.5304 7.87734 11.0391 8.25241 11.4142C8.62749 11.7893 9.13619 12 9.66663 12Z" fill="#DBB11C"/>
</svg>
