<svg width="22" height="16" viewBox="0 0 22 16" fill="none" xmlns="http://www.w3.org/2000/svg">
<path d="M20.75 11H17.75V5.50062C18.471 6.39007 19.4066 7.08117 20.4688 7.50875C20.6523 7.57949 20.8564 7.57526 21.0369 7.49696C21.2174 7.41867 21.3599 7.27258 21.4337 7.09019C21.5075 6.90781 21.5066 6.70373 21.4313 6.52195C21.3561 6.34018 21.2124 6.19526 21.0312 6.11844C20.0599 5.72852 19.2279 5.05609 18.643 4.18814C18.058 3.32019 17.7469 2.29667 17.75 1.25C17.75 1.05109 17.671 0.860322 17.5303 0.71967C17.3897 0.579018 17.1989 0.5 17 0.5C16.8011 0.5 16.6103 0.579018 16.4697 0.71967C16.329 0.860322 16.25 1.05109 16.25 1.25C16.25 2.64239 15.6969 3.97774 14.7123 4.96231C13.7277 5.94688 12.3924 6.5 11 6.5C9.60761 6.5 8.27226 5.94688 7.28769 4.96231C6.30312 3.97774 5.75 2.64239 5.75 1.25C5.75 1.05109 5.67098 0.860322 5.53033 0.71967C5.38968 0.579018 5.19891 0.5 5 0.5C4.80109 0.5 4.61032 0.579018 4.46967 0.71967C4.32902 0.860322 4.25 1.05109 4.25 1.25C4.2531 2.29667 3.94203 3.32019 3.35705 4.18814C2.77207 5.05609 1.94009 5.72852 0.96875 6.11844C0.787619 6.19526 0.643928 6.34018 0.568652 6.52195C0.493376 6.70373 0.492543 6.90781 0.566334 7.09019C0.640124 7.27258 0.782628 7.41867 0.963126 7.49696C1.14362 7.57526 1.34766 7.57949 1.53125 7.50875C2.59336 7.08117 3.52903 6.39007 4.25 5.50062V11H1.25C1.05109 11 0.860322 11.079 0.71967 11.2197C0.579018 11.3603 0.5 11.5511 0.5 11.75C0.5 11.9489 0.579018 12.1397 0.71967 12.2803C0.860322 12.421 1.05109 12.5 1.25 12.5H4.25V14.75C4.25 14.9489 4.32902 15.1397 4.46967 15.2803C4.61032 15.421 4.80109 15.5 5 15.5C5.19891 15.5 5.38968 15.421 5.53033 15.2803C5.67098 15.1397 5.75 14.9489 5.75 14.75V12.5H16.25V14.75C16.25 14.9489 16.329 15.1397 16.4697 15.2803C16.6103 15.421 16.8011 15.5 17 15.5C17.1989 15.5 17.3897 15.421 17.5303 15.2803C17.671 15.1397 17.75 14.9489 17.75 14.75V12.5H20.75C20.9489 12.5 21.1397 12.421 21.2803 12.2803C21.421 12.1397 21.5 11.9489 21.5 11.75C21.5 11.5511 21.421 11.3603 21.2803 11.2197C21.1397 11.079 20.9489 11 20.75 11ZM12.5 7.83125V11H9.5V7.83125C10.4873 8.05629 11.5127 8.05629 12.5 7.83125ZM5.75 5.4875C6.362 6.24384 7.1293 6.85993 8 7.29406V11H5.75V5.4875ZM14 11V7.295C14.8707 6.86086 15.638 6.24478 16.25 5.48844V11H14Z" fill="#DBB11C"/>
</svg>
