<svg width="26" height="26" viewBox="0 0 26 26" fill="none" xmlns="http://www.w3.org/2000/svg">
<path d="M25.345 5.62501C25.2843 5.47508 25.1882 5.3421 25.0649 5.23748C24.9415 5.13286 24.7947 5.05971 24.6369 5.02431C24.479 4.98892 24.315 4.99233 24.1588 5.03425C24.0026 5.07617 23.8589 5.15535 23.74 5.26501L18.7025 9.91376L16.5487 9.45126L16.0862 7.29751L20.735 2.26001C20.8447 2.14112 20.9238 1.99742 20.9658 1.84121C21.0077 1.685 21.0111 1.52096 20.9757 1.36315C20.9403 1.20533 20.8671 1.05846 20.7625 0.935126C20.6579 0.811789 20.5249 0.715669 20.375 0.655009C19.0087 0.102301 17.5275 -0.106387 16.0616 0.0472825C14.5958 0.200952 13.1901 0.712274 11.9681 1.53632C10.7461 2.36037 9.74518 3.47193 9.05329 4.77332C8.3614 6.07472 7.99971 7.52612 8 9.00001C7.99838 10.2446 8.25371 11.4761 8.75 12.6175L1.22375 19.125C1.205 19.14 1.1875 19.1575 1.17 19.1738C0.419767 19.924 -0.00170898 20.9415 -0.00170898 22.0025C-0.00170898 22.5279 0.101766 23.0481 0.302808 23.5334C0.503849 24.0188 0.798521 24.4598 1.17 24.8313C1.54147 25.2027 1.98248 25.4974 2.46784 25.6985C2.9532 25.8995 3.4734 26.003 3.99875 26.003C5.05973 26.003 6.07727 25.5815 6.8275 24.8313C6.84375 24.815 6.86125 24.7963 6.87625 24.7788L13.3825 17.25C14.753 17.8516 16.252 18.1019 17.7436 17.9783C19.2353 17.8546 20.6725 17.3608 21.9253 16.5417C23.178 15.7226 24.2067 14.604 24.9182 13.2871C25.6297 11.9703 26.0015 10.4968 26 9.00001C26.0019 7.84324 25.7795 6.69707 25.345 5.62501ZM17 16C15.8163 15.9984 14.6523 15.6974 13.6162 15.125C13.4155 15.0141 13.1828 14.9756 12.957 15.0159C12.7313 15.0561 12.5262 15.1728 12.3762 15.3463L5.38875 23.4388C5.01062 23.798 4.50712 23.9953 3.9856 23.9886C3.46408 23.982 2.96579 23.7718 2.59699 23.403C2.22819 23.0342 2.01805 22.5359 2.01137 22.0144C2.00469 21.4929 2.20201 20.9894 2.56125 20.6113L10.6475 13.625C10.8213 13.475 10.9381 13.2697 10.9784 13.0436C11.0187 12.8176 10.98 12.5846 10.8687 12.3838C10.2313 11.2308 9.93212 9.92137 10.0057 8.60598C10.0792 7.2906 10.5224 6.02266 11.2844 4.94795C12.0464 3.87324 13.0963 3.03538 14.3132 2.53069C15.5301 2.02601 16.8648 1.875 18.1637 2.09501L14.2637 6.32126C14.1552 6.43898 14.0766 6.58103 14.0344 6.73546C13.9922 6.8899 13.9877 7.05222 14.0212 7.20876L14.7287 10.5C14.7692 10.6882 14.8632 10.8608 14.9993 10.997C15.1355 11.1331 15.308 11.227 15.4962 11.2675L18.79 11.975C18.9465 12.0086 19.1089 12.0041 19.2633 11.9619C19.4177 11.9197 19.5598 11.841 19.6775 11.7325L23.9037 7.83251C24.0722 8.83627 24.02 9.86468 23.7508 10.8462C23.4816 11.8278 23.0017 12.7389 22.3447 13.5162C21.6876 14.2935 20.8692 14.9184 19.9462 15.3473C19.0232 15.7763 18.0178 15.999 17 16Z" fill="#DBB11C"/>
</svg>
