<svg width="24" height="18" viewBox="0 0 24 18" fill="none" xmlns="http://www.w3.org/2000/svg">
<path d="M22.95 10.1C22.8712 10.1591 22.7816 10.2021 22.6862 10.2266C22.5908 10.251 22.4915 10.2564 22.394 10.2425C22.2965 10.2286 22.2027 10.1956 22.1179 10.1454C22.0332 10.0952 21.9591 10.0288 21.9 9.95004C21.448 9.34241 20.8596 8.84941 20.1822 8.51072C19.5048 8.17202 18.7574 7.99711 18 8.00004C17.8526 8.00003 17.7083 7.95653 17.5855 7.87499C17.4626 7.79345 17.3664 7.67749 17.3091 7.54161C17.2702 7.44933 17.2501 7.3502 17.2501 7.25004C17.2501 7.14989 17.2702 7.05076 17.3091 6.95848C17.3664 6.8226 17.4626 6.70664 17.5855 6.6251C17.7083 6.54356 17.8526 6.50006 18 6.50004C18.4209 6.50001 18.8332 6.38196 19.1903 6.1593C19.5474 5.93665 19.8349 5.61831 20.0201 5.24046C20.2054 4.8626 20.2809 4.44037 20.2382 4.02173C20.1955 3.60308 20.0363 3.2048 19.7786 2.87213C19.5209 2.53946 19.175 2.28572 18.7803 2.13975C18.3856 1.99378 17.9579 1.96141 17.5458 2.04634C17.1336 2.13127 16.7535 2.33008 16.4487 2.62019C16.1439 2.9103 15.9265 3.28009 15.8213 3.68754C15.7967 3.78296 15.7535 3.87259 15.6942 3.95132C15.635 4.03004 15.5608 4.09633 15.4759 4.14638C15.391 4.19644 15.2971 4.22929 15.1995 4.24305C15.102 4.25682 15.0026 4.25123 14.9072 4.22661C14.8118 4.20198 14.7222 4.15881 14.6435 4.09955C14.5647 4.04029 14.4984 3.9661 14.4484 3.88122C14.3983 3.79634 14.3655 3.70243 14.3517 3.60486C14.338 3.50729 14.3435 3.40796 14.3682 3.31255C14.5142 2.74753 14.7901 2.22439 15.1738 1.78475C15.5576 1.34511 16.0387 1.00111 16.5788 0.780124C17.119 0.559134 17.7032 0.467253 18.2851 0.511793C18.867 0.556332 19.4304 0.736062 19.9306 1.03668C20.4308 1.3373 20.8539 1.75051 21.1663 2.24344C21.4787 2.73636 21.6718 3.2954 21.7301 3.87605C21.7884 4.45671 21.7104 5.04297 21.5023 5.58818C21.2942 6.1334 20.9617 6.62251 20.5313 7.01661C21.5511 7.45817 22.4377 8.15887 23.1028 9.04911C23.1619 9.1281 23.2049 9.21798 23.2292 9.31359C23.2535 9.40919 23.2587 9.50866 23.2445 9.60628C23.2303 9.7039 23.197 9.79777 23.1465 9.88249C23.0959 9.96722 23.0292 10.0412 22.95 10.1ZM17.8988 15.875C17.9531 15.9604 17.9895 16.0559 18.0059 16.1557C18.0223 16.2555 18.0184 16.3576 17.9943 16.4558C17.9703 16.5541 17.9266 16.6464 17.8659 16.7274C17.8052 16.8083 17.7288 16.8761 17.6412 16.9267C17.5536 16.9773 17.4567 17.0097 17.3563 17.0219C17.2559 17.0341 17.154 17.0259 17.0569 16.9977C16.9597 16.9695 16.8693 16.922 16.791 16.8579C16.7127 16.7939 16.6482 16.7147 16.6013 16.625C16.1288 15.825 15.456 15.1621 14.6491 14.7015C13.8422 14.2409 12.9291 13.9987 12 13.9987C11.0709 13.9987 10.1579 14.2409 9.35102 14.7015C8.54412 15.1621 7.87125 15.825 7.39879 16.625C7.3519 16.7147 7.28737 16.7939 7.20908 16.8579C7.13078 16.922 7.04034 16.9695 6.94319 16.9977C6.84605 17.0259 6.7442 17.0341 6.64379 17.0219C6.54338 17.0097 6.44647 16.9773 6.35889 16.9267C6.27132 16.8761 6.19489 16.8083 6.1342 16.7274C6.07352 16.6464 6.02983 16.5541 6.00576 16.4558C5.9817 16.3576 5.97775 16.2555 5.99417 16.1557C6.01059 16.0559 6.04702 15.9604 6.10129 15.875C6.82841 14.6257 7.9371 13.6426 9.26441 13.07C8.51753 12.4982 7.96863 11.7067 7.69485 10.8068C7.42108 9.90683 7.4362 8.94373 7.73808 8.05283C8.03997 7.16194 8.61346 6.38804 9.37792 5.83993C10.1424 5.29182 11.0594 4.99704 12 4.99704C12.9407 4.99704 13.8577 5.29182 14.6222 5.83993C15.3866 6.38804 15.9601 7.16194 16.262 8.05283C16.5639 8.94373 16.579 9.90683 16.3052 10.8068C16.0315 11.7067 15.4825 12.4982 14.7357 13.07C16.063 13.6426 17.1717 14.6257 17.8988 15.875ZM12 12.5C12.5934 12.5 13.1734 12.3241 13.6667 11.9945C14.1601 11.6648 14.5446 11.1963 14.7717 10.6481C14.9987 10.0999 15.0582 9.49672 14.9424 8.91477C14.8266 8.33283 14.5409 7.79828 14.1214 7.37872C13.7018 6.95917 13.1673 6.67344 12.5853 6.55769C12.0034 6.44193 11.4002 6.50134 10.852 6.72841C10.3038 6.95547 9.83528 7.33999 9.50563 7.83333C9.17599 8.32668 9.00004 8.9067 9.00004 9.50004C9.00004 10.2957 9.31611 11.0588 9.87872 11.6214C10.4413 12.184 11.2044 12.5 12 12.5ZM6.75004 7.25004C6.75004 7.05113 6.67102 6.86037 6.53037 6.71972C6.38972 6.57906 6.19895 6.50004 6.00004 6.50004C5.57922 6.50001 5.16685 6.38196 4.80976 6.1593C4.45267 5.93665 4.16518 5.61831 3.97994 5.24046C3.79471 4.8626 3.71915 4.44037 3.76185 4.02173C3.80455 3.60308 3.9638 3.2048 4.22152 2.87213C4.47923 2.53946 4.82507 2.28572 5.21976 2.13975C5.61445 1.99378 6.04216 1.96141 6.45432 2.04634C6.86648 2.13127 7.24656 2.33008 7.55139 2.62019C7.85622 2.9103 8.07359 3.28009 8.17879 3.68754C8.22852 3.88024 8.35276 4.04529 8.52418 4.14638C8.6956 4.24748 8.90016 4.27634 9.09285 4.22661C9.28555 4.17688 9.4506 4.05264 9.55169 3.88122C9.65279 3.7098 9.68164 3.50524 9.63192 3.31255C9.48589 2.74753 9.21002 2.22439 8.82624 1.78475C8.44246 1.34511 7.96137 1.00111 7.42125 0.780124C6.88112 0.559134 6.29688 0.467253 5.715 0.511793C5.13312 0.556332 4.56967 0.736062 4.06947 1.03668C3.56928 1.3373 3.14614 1.75051 2.83375 2.24344C2.52135 2.73636 2.32831 3.2954 2.26998 3.87605C2.21165 4.45671 2.28965 5.04297 2.49777 5.58818C2.70589 6.1334 3.03838 6.62251 3.46879 7.01661C2.44999 7.45858 1.56446 8.15926 0.90004 9.04911C0.780569 9.20824 0.729204 9.40831 0.757247 9.60531C0.785289 9.80231 0.890442 9.9801 1.04957 10.0996C1.2087 10.219 1.40877 10.2704 1.60577 10.2424C1.80278 10.2143 1.98057 10.1092 2.10004 9.95004C2.55209 9.34241 3.14049 8.84941 3.81788 8.51072C4.49526 8.17202 5.24271 7.99711 6.00004 8.00004C6.19895 8.00004 6.38972 7.92103 6.53037 7.78038C6.67102 7.63972 6.75004 7.44896 6.75004 7.25004Z" fill="white"/>
</svg>
