<svg width="17" height="19" viewBox="0 0 17 19" fill="none" xmlns="http://www.w3.org/2000/svg">
<path fill-rule="evenodd" clip-rule="evenodd" d="M15.2071 6.27312C15.2071 7.42862 15.539 8.10969 16.2695 8.89454C16.8231 9.47275 17 10.215 17 11.0202C17 11.8245 16.7128 12.5881 16.1373 13.208C15.384 13.9511 14.3215 14.4256 13.2372 14.508C11.6659 14.6313 10.0937 14.735 8.5005 14.735C6.90634 14.735 5.33505 14.673 3.76375 14.508C2.67846 14.4256 1.61602 13.9511 0.863666 13.208C0.28822 12.5881 0 11.8245 0 11.0202C0 10.215 0.177901 9.47275 0.730488 8.89454C1.48384 8.10969 1.79392 7.42862 1.79392 6.27312V5.88116C1.79392 4.3337 2.21333 3.32182 3.077 2.33126C4.36106 0.886657 6.41935 0.0202637 8.45577 0.0202637H8.54522C10.6254 0.0202637 12.7502 0.928355 14.0125 2.43505C14.8314 3.40522 15.2071 4.37447 15.2071 5.88116V6.27312ZM5.57373 16.6369C5.57373 16.1735 6.03587 15.9613 6.46323 15.8705C6.96313 15.7732 10.0093 15.7732 10.5092 15.8705C10.9365 15.9613 11.3987 16.1735 11.3987 16.6369C11.3738 17.0779 11.0926 17.469 10.704 17.7173C10.2001 18.0787 9.60876 18.3076 8.99058 18.39C8.6487 18.4308 8.31278 18.4317 7.98282 18.39C7.36365 18.3076 6.77231 18.0787 6.26942 17.7164C5.87984 17.469 5.59858 17.0779 5.57373 16.6369Z" fill="#222222"/>
</svg>
