<svg width="33" height="33" viewBox="0 0 33 33" fill="none" xmlns="http://www.w3.org/2000/svg">
<path d="M28.9631 6.76306H4.96313C4.69792 6.76306 4.44356 6.86842 4.25603 7.05595C4.06849 7.24349 3.96313 7.49785 3.96313 7.76306V24.7631C3.96313 25.2935 4.17385 25.8022 4.54892 26.1773C4.92399 26.5523 5.4327 26.7631 5.96313 26.7631H27.9631C28.4936 26.7631 29.0023 26.5523 29.3773 26.1773C29.7524 25.8022 29.9631 25.2935 29.9631 24.7631V7.76306C29.9631 7.49785 29.8578 7.24349 29.6702 7.05595C29.4827 6.86842 29.2284 6.76306 28.9631 6.76306ZM5.96313 14.7631H10.9631V18.7631H5.96313V14.7631ZM12.9631 14.7631H27.9631V18.7631H12.9631V14.7631ZM27.9631 8.76306V12.7631H5.96313V8.76306H27.9631ZM5.96313 20.7631H10.9631V24.7631H5.96313V20.7631ZM27.9631 24.7631H12.9631V20.7631H27.9631V24.7631Z" fill="white"/>
</svg>
