<svg width="27" height="28" viewBox="0 0 27 28" fill="none" xmlns="http://www.w3.org/2000/svg">
<path d="M25.2934 6.26877L14.2934 0.250022C13.9995 0.0876253 13.6692 0.00244141 13.3334 0.00244141C12.9976 0.00244141 12.6673 0.0876253 12.3734 0.250022L1.37337 6.27127C1.05923 6.44315 0.797003 6.69622 0.614064 7.00405C0.431124 7.31188 0.334187 7.66319 0.333374 8.02127V19.9763C0.334187 20.3344 0.431124 20.6857 0.614064 20.9935C0.797003 21.3013 1.05923 21.5544 1.37337 21.7263L12.3734 27.7475C12.6673 27.9099 12.9976 27.9951 13.3334 27.9951C13.6692 27.9951 13.9995 27.9099 14.2934 27.7475L25.2934 21.7263C25.6075 21.5544 25.8697 21.3013 26.0527 20.9935C26.2356 20.6857 26.3326 20.3344 26.3334 19.9763V8.02252C26.3332 7.6638 26.2366 7.31172 26.0536 7.00317C25.8707 6.69462 25.6081 6.44096 25.2934 6.26877ZM13.3334 2.00002L23.3759 7.50002L13.3334 13L3.29087 7.50002L13.3334 2.00002ZM2.33337 9.25002L12.3334 14.7225V25.4463L2.33337 19.9775V9.25002ZM14.3334 25.4463V14.7275L24.3334 9.25002V19.9725L14.3334 25.4463Z" fill="#DBB11C"/>
</svg>
