<svg width="25" height="26" viewBox="0 0 25 26" fill="none" xmlns="http://www.w3.org/2000/svg">
<path d="M22.3334 2H19.3334V1C19.3334 0.734784 19.228 0.48043 19.0405 0.292893C18.8529 0.105357 18.5986 0 18.3334 0C18.0682 0 17.8138 0.105357 17.6263 0.292893C17.4387 0.48043 17.3334 0.734784 17.3334 1V2H7.33337V1C7.33337 0.734784 7.22802 0.48043 7.04048 0.292893C6.85294 0.105357 6.59859 0 6.33337 0C6.06816 0 5.8138 0.105357 5.62627 0.292893C5.43873 0.48043 5.33337 0.734784 5.33337 1V2H2.33337C1.80294 2 1.29423 2.21071 0.91916 2.58579C0.544088 2.96086 0.333374 3.46957 0.333374 4V24C0.333374 24.5304 0.544088 25.0391 0.91916 25.4142C1.29423 25.7893 1.80294 26 2.33337 26H22.3334C22.8638 26 23.3725 25.7893 23.7476 25.4142C24.1227 25.0391 24.3334 24.5304 24.3334 24V4C24.3334 3.46957 24.1227 2.96086 23.7476 2.58579C23.3725 2.21071 22.8638 2 22.3334 2ZM5.33337 4V5C5.33337 5.26522 5.43873 5.51957 5.62627 5.70711C5.8138 5.89464 6.06816 6 6.33337 6C6.59859 6 6.85294 5.89464 7.04048 5.70711C7.22802 5.51957 7.33337 5.26522 7.33337 5V4H17.3334V5C17.3334 5.26522 17.4387 5.51957 17.6263 5.70711C17.8138 5.89464 18.0682 6 18.3334 6C18.5986 6 18.8529 5.89464 19.0405 5.70711C19.228 5.51957 19.3334 5.26522 19.3334 5V4H22.3334V8H2.33337V4H5.33337ZM22.3334 24H2.33337V10H22.3334V24ZM17.5409 13.2925C17.6339 13.3854 17.7076 13.4957 17.7579 13.6171C17.8083 13.7385 17.8342 13.8686 17.8342 14C17.8342 14.1314 17.8083 14.2615 17.7579 14.3829C17.7076 14.5043 17.6339 14.6146 17.5409 14.7075L11.5409 20.7075C11.448 20.8005 11.3377 20.8742 11.2163 20.9246C11.0949 20.9749 10.9648 21.0008 10.8334 21.0008C10.702 21.0008 10.5718 20.9749 10.4504 20.9246C10.329 20.8742 10.2187 20.8005 10.1259 20.7075L7.12587 17.7075C6.93823 17.5199 6.83282 17.2654 6.83282 17C6.83282 16.7346 6.93823 16.4801 7.12587 16.2925C7.31351 16.1049 7.56801 15.9994 7.83337 15.9994C8.09874 15.9994 8.35323 16.1049 8.54087 16.2925L10.8334 18.5863L16.1259 13.2925C16.2187 13.1995 16.329 13.1258 16.4504 13.0754C16.5718 13.0251 16.702 12.9992 16.8334 12.9992C16.9648 12.9992 17.0949 13.0251 17.2163 13.0754C17.3377 13.1258 17.448 13.1995 17.5409 13.2925Z" fill="#DBB11C"/>
</svg>
