<svg width="26" height="25" viewBox="0 0 26 25" fill="none" xmlns="http://www.w3.org/2000/svg">
<path d="M25.892 8.13646C25.8925 8.04374 25.8803 7.95141 25.8558 7.86221L24.1228 1.60426C24.0063 1.18904 23.7629 0.823843 23.4288 0.563217C23.0946 0.30259 22.6878 0.160513 22.2691 0.158203H4.39589C3.97712 0.160513 3.57031 0.30259 3.23621 0.563217C2.9021 0.823843 2.65863 1.18904 2.54215 1.60426L0.810387 7.86221C0.785439 7.95135 0.772835 8.04368 0.77295 8.13646V10.131C0.77295 10.9051 0.947552 11.6686 1.28293 12.361C1.61831 13.0534 2.10525 13.6557 2.70519 14.1202V22.0984C2.70519 22.6274 2.90876 23.1347 3.27112 23.5088C3.63349 23.8828 4.12496 24.093 4.63742 24.093H22.0275C22.54 24.093 23.0315 23.8828 23.3938 23.5088C23.7562 23.1347 23.9598 22.6274 23.9598 22.0984V14.1202C24.5597 13.6557 25.0467 13.0534 25.382 12.361C25.7174 11.6686 25.892 10.9051 25.892 10.131V8.13646ZM4.39589 2.15277H22.2691L23.6482 7.13918H3.02038L4.39589 2.15277ZM10.4341 9.13375H16.2308V10.131C16.2308 10.9245 15.9255 11.6855 15.3819 12.2466C14.8384 12.8077 14.1012 13.1229 13.3325 13.1229C12.5638 13.1229 11.8266 12.8077 11.283 12.2466C10.7395 11.6855 10.4341 10.9245 10.4341 10.131V9.13375ZM8.50189 9.13375V10.131C8.50189 10.9245 8.19653 11.6855 7.65298 12.2466C7.10944 12.8077 6.37223 13.1229 5.60354 13.1229C4.83485 13.1229 4.09764 12.8077 3.55409 12.2466C3.01055 11.6855 2.70519 10.9245 2.70519 10.131V9.13375H8.50189ZM22.0275 22.0984H4.63742V15.0177C4.95547 15.0839 5.27909 15.1173 5.60354 15.1174C6.35346 15.1174 7.09309 14.9372 7.76384 14.591C8.4346 14.2448 9.01805 13.7422 9.46801 13.1229C9.91796 13.7422 10.5014 14.2448 11.1722 14.591C11.8429 14.9372 12.5826 15.1174 13.3325 15.1174C14.0824 15.1174 14.822 14.9372 15.4928 14.591C16.1635 14.2448 16.747 13.7422 17.1969 13.1229C17.6469 13.7422 18.2304 14.2448 18.9011 14.591C19.5719 14.9372 20.3115 15.1174 21.0614 15.1174C21.3859 15.1173 21.7095 15.0839 22.0275 15.0177V22.0984ZM21.0614 13.1229C20.2927 13.1229 19.5555 12.8077 19.012 12.2466C18.4684 11.6855 18.1631 10.9245 18.1631 10.131V9.13375H23.9598V10.131C23.9598 10.9245 23.6544 11.6855 23.1109 12.2466C22.5673 12.8077 21.8301 13.1229 21.0614 13.1229Z" fill="#DBB11C"/>
</svg>
