<svg width="32" height="20" viewBox="0 0 32 20" fill="none" xmlns="http://www.w3.org/2000/svg">
<path d="M14.6602 13.7355C16.0005 12.8432 17.018 11.5433 17.5623 10.028C18.1067 8.51275 18.1489 6.86251 17.6829 5.32135C17.2168 3.78019 16.2671 2.42994 14.9743 1.47026C13.6814 0.510582 12.1141 -0.00756836 10.504 -0.00756836C8.89387 -0.00756836 7.32652 0.510582 6.03368 1.47026C4.74085 2.42994 3.79117 3.78019 3.32508 5.32135C2.859 6.86251 2.90125 8.51275 3.44559 10.028C3.98993 11.5433 5.00747 12.8432 6.34772 13.7355C3.92333 14.629 1.85285 16.2825 0.445218 18.4492C0.371238 18.5592 0.319851 18.6827 0.294045 18.8127C0.268238 18.9427 0.268527 19.0765 0.294895 19.2064C0.321262 19.3363 0.373182 19.4596 0.447637 19.5693C0.522091 19.6789 0.617595 19.7726 0.728596 19.845C0.839598 19.9174 0.963884 19.9671 1.09423 19.991C1.22457 20.0149 1.35838 20.0127 1.48786 19.9845C1.61735 19.9563 1.73993 19.9026 1.84849 19.8266C1.95705 19.7506 2.04941 19.6538 2.12022 19.5417C3.02821 18.1452 4.27066 16.9976 5.73476 16.2032C7.19886 15.4088 8.83822 14.9927 10.504 14.9927C12.1697 14.9927 13.8091 15.4088 15.2732 16.2032C16.7373 16.9976 17.9797 18.1452 18.8877 19.5417C19.0344 19.7597 19.261 19.9112 19.5184 19.9635C19.7759 20.0158 20.0436 19.9646 20.2637 19.8211C20.4838 19.6775 20.6385 19.4532 20.6945 19.1965C20.7504 18.9397 20.7031 18.6713 20.5627 18.4492C19.1551 16.2825 17.0846 14.629 14.6602 13.7355ZM5.00397 7.49547C5.00397 6.40768 5.32654 5.34431 5.93089 4.43984C6.53523 3.53537 7.39422 2.83042 8.39921 2.41414C9.4042 1.99786 10.5101 1.88894 11.577 2.10116C12.6439 2.31337 13.6239 2.8372 14.3931 3.60639C15.1622 4.37558 15.6861 5.35558 15.8983 6.42248C16.1105 7.48937 16.0016 8.59524 15.5853 9.60023C15.169 10.6052 14.4641 11.4642 13.5596 12.0686C12.6551 12.6729 11.5918 12.9955 10.504 12.9955C9.04578 12.9938 7.6478 12.4138 6.61671 11.3827C5.58562 10.3516 5.00562 8.95366 5.00397 7.49547ZM31.2715 19.833C31.0493 19.9778 30.7788 20.0285 30.5193 19.9739C30.2598 19.9193 30.0326 19.7638 29.8877 19.5417C28.9808 18.1444 27.7385 16.9963 26.2741 16.2022C24.8097 15.4081 23.1698 14.9932 21.504 14.9955C21.2388 14.9955 20.9844 14.8901 20.7969 14.7026C20.6093 14.515 20.504 14.2607 20.504 13.9955C20.504 13.7303 20.6093 13.4759 20.7969 13.2884C20.9844 13.1008 21.2388 12.9955 21.504 12.9955C22.3139 12.9947 23.1137 12.8151 23.8462 12.4694C24.5787 12.1237 25.2258 11.6205 25.7412 10.9957C26.2567 10.3709 26.6278 9.64001 26.8281 8.8552C27.0283 8.07038 27.0527 7.25101 26.8996 6.45566C26.7465 5.66031 26.4196 4.90859 25.9422 4.25422C25.4649 3.59985 24.8489 3.05898 24.1384 2.67027C23.4278 2.28155 22.6401 2.05457 21.8316 2.00556C21.0231 1.95654 20.2138 2.0867 19.4615 2.38672C19.3388 2.43975 19.2067 2.46766 19.0731 2.46879C18.9395 2.46991 18.807 2.44425 18.6834 2.3933C18.5599 2.34235 18.4478 2.26716 18.3538 2.17216C18.2598 2.07716 18.1858 1.96429 18.1362 1.84021C18.0866 1.71613 18.0623 1.58336 18.0648 1.44975C18.0674 1.31613 18.0967 1.18439 18.151 1.06229C18.2054 0.940193 18.2836 0.830224 18.3812 0.738881C18.4787 0.647537 18.5936 0.576673 18.719 0.530475C20.4408 -0.156212 22.3559 -0.180923 24.0949 0.461108C25.8339 1.10314 27.2735 2.36642 28.136 4.00725C28.9985 5.64807 29.2228 7.55018 28.7656 9.34662C28.3084 11.1431 27.2022 12.7066 25.6602 13.7355C28.0846 14.629 30.1551 16.2825 31.5627 18.4492C31.7076 18.6714 31.7583 18.9419 31.7036 19.2014C31.649 19.4609 31.4936 19.6881 31.2715 19.833Z" fill="#DBB11C"/>
</svg>
